<svg width="32" height="30" viewBox="0 0 32 30" fill="none" xmlns="http://www.w3.org/2000/svg">
<g clip-path="url(#clip0_30_943)">
<path d="M32 15C32 6.71578 24.8365 0 16 0C7.1635 0 0 6.71566 0 15C0 22.4869 5.851 28.6925 13.5 29.8178V19.3359H9.4375V15H13.5V11.6953C13.5 7.93594 15.8888 5.85938 19.5434 5.85938C21.294 5.85938 23.125 6.15234 23.125 6.15234V9.84375H21.1075C19.1198 9.84375 18.5 11 18.5 12.1863V15H22.9375L22.2281 19.3359H18.5V29.8178C26.149 28.6925 32 22.487 32 15Z" fill="#1877F2"/>
<path d="M22.2281 19.3359L22.9375 15H18.5V12.1863C18.5 10.9999 19.1199 9.84375 21.1075 9.84375H23.125V6.15234C23.125 6.15234 21.294 5.85938 19.5434 5.85938C15.8888 5.85938 13.5 7.93594 13.5 11.6953V15H9.4375V19.3359H13.5V29.8178C14.327 29.9393 15.1629 30.0002 16 30C16.8371 30.0002 17.673 29.9393 18.5 29.8178V19.3359H22.2281Z" fill="white"/>
</g>
<defs>
<clipPath id="clip0_30_943">
<rect width="32" height="30" fill="white"/>
</clipPath>
</defs>
</svg>
