<svg width="17" height="17" viewBox="0 0 17 17" fill="none" xmlns="http://www.w3.org/2000/svg">
<g clip-path="url(#clip0_30_1683)">
<path d="M15.9375 1.59207L11.6838 1.59209V0.533309C11.6838 0.239794 11.446 0.00205938 11.1525 0.00205938C10.859 0.00205938 10.6213 0.239794 10.6213 0.533309V1.59183H6.37128V0.533309C6.37128 0.239794 6.13355 0.00205938 5.84003 0.00205938C5.54652 0.00205938 5.30878 0.239794 5.30878 0.533309V1.59183H1.0625C0.475734 1.59183 0 2.06756 0 2.65432V15.9356C0 16.5223 0.475734 16.9981 1.0625 16.9981H15.9375C16.5243 16.9981 17 16.5223 17 15.9356V2.65432C17 2.06781 16.5243 1.59207 15.9375 1.59207ZM15.9375 15.9356H1.0625V2.65432H5.30878V3.18956C5.30878 3.48306 5.54652 3.72081 5.84003 3.72081C6.13355 3.72081 6.37128 3.48306 6.37128 3.18956V2.65459H10.6213V3.18982C10.6213 3.48334 10.859 3.72107 11.1525 3.72107C11.446 3.72107 11.6838 3.48334 11.6838 3.18982V2.65459H15.9375V15.9356ZM12.2188 8.49832H13.2812C13.5745 8.49832 13.8125 8.26032 13.8125 7.96707V6.90457C13.8125 6.61132 13.5745 6.37332 13.2812 6.37332H12.2188C11.9255 6.37332 11.6875 6.61132 11.6875 6.90457V7.96707C11.6875 8.26032 11.9255 8.49832 12.2188 8.49832ZM12.2188 12.7481H13.2812C13.5745 12.7481 13.8125 12.5103 13.8125 12.2168V11.1543C13.8125 10.8611 13.5745 10.6231 13.2812 10.6231H12.2188C11.9255 10.6231 11.6875 10.8611 11.6875 11.1543V12.2168C11.6875 12.5106 11.9255 12.7481 12.2188 12.7481ZM9.03125 10.6231H7.96875C7.6755 10.6231 7.4375 10.8611 7.4375 11.1543V12.2168C7.4375 12.5103 7.6755 12.7481 7.96875 12.7481H9.03125C9.3245 12.7481 9.5625 12.5103 9.5625 12.2168V11.1543C9.5625 10.8613 9.3245 10.6231 9.03125 10.6231ZM9.03125 6.37332H7.96875C7.6755 6.37332 7.4375 6.61132 7.4375 6.90457V7.96707C7.4375 8.26032 7.6755 8.49832 7.96875 8.49832H9.03125C9.3245 8.49832 9.5625 8.26032 9.5625 7.96707V6.90457C9.5625 6.61106 9.3245 6.37332 9.03125 6.37332ZM4.78125 6.37332H3.71875C3.4255 6.37332 3.1875 6.61132 3.1875 6.90457V7.96707C3.1875 8.26032 3.4255 8.49832 3.71875 8.49832H4.78125C5.0745 8.49832 5.3125 8.26032 5.3125 7.96707V6.90457C5.3125 6.61106 5.0745 6.37332 4.78125 6.37332ZM4.78125 10.6231H3.71875C3.4255 10.6231 3.1875 10.8611 3.1875 11.1543V12.2168C3.1875 12.5103 3.4255 12.7481 3.71875 12.7481H4.78125C5.0745 12.7481 5.3125 12.5103 5.3125 12.2168V11.1543C5.3125 10.8613 5.0745 10.6231 4.78125 10.6231Z" fill="#7ACF56"/>
</g>
<defs>
<clipPath id="clip0_30_1683">
<rect width="16.6267" height="16.6267" fill="white" transform="scale(1.02245)"/>
</clipPath>
</defs>
</svg>
