<svg width="21" height="21" viewBox="0 0 21 21" fill="none" xmlns="http://www.w3.org/2000/svg">
<path d="M15.0904 6.03666L6.8387 11.1942C6.9834 11.6548 7.03107 12.1405 6.97871 12.6205L14.6336 15.4906C15.1226 14.793 15.8493 14.2977 16.6774 14.0975C17.5055 13.8973 18.3781 14.006 19.1318 14.4033C19.8855 14.8005 20.4684 15.459 20.7713 16.2553C21.0742 17.0516 21.0762 17.931 20.7771 18.7287C20.478 19.5264 19.8982 20.1876 19.1464 20.5884C18.3946 20.9892 17.5224 21.102 16.6934 20.9057C15.8644 20.7094 15.1354 20.2175 14.6431 19.5222C14.1508 18.8269 13.929 17.9759 14.0193 17.1287L6.36618 14.2586C5.95607 14.8435 5.37678 15.289 4.70611 15.5351C4.03545 15.7813 3.30553 15.8163 2.61438 15.6355C1.92323 15.4547 1.30396 15.0667 0.839727 14.5237C0.375496 13.9807 0.0885402 13.3087 0.0174002 12.5978C-0.0537398 11.887 0.0943426 11.1714 0.441759 10.5471C0.789175 9.92288 1.31929 9.41989 1.9609 9.10572C2.60251 8.79154 3.3249 8.68122 4.03104 8.78957C4.73718 8.89792 5.39325 9.21975 5.91115 9.71184L14.1611 4.55433C13.9045 3.74196 13.953 2.86391 14.2975 2.08475C14.642 1.3056 15.2589 0.678832 16.0324 0.321943C16.806 -0.0349465 17.6832 -0.0974582 18.4995 0.146125C19.3159 0.389709 20.0154 0.922664 20.4669 1.64509C20.9184 2.36752 21.091 3.22982 20.9522 4.07036C20.8134 4.9109 20.3728 5.67198 19.7131 6.21092C19.0533 6.74987 18.2196 7.02969 17.3683 6.99793C16.5169 6.96617 15.7064 6.62501 15.0886 6.03841L15.0904 6.03666Z" fill="#4C9580"/>
</svg>
