<svg width="26" height="26" viewBox="0 0 26 26" fill="none" xmlns="http://www.w3.org/2000/svg">
<path d="M16.445 17.5939L22.9873 24.1378C23.0628 24.2133 23.1525 24.2732 23.2512 24.3141C23.3499 24.355 23.4557 24.376 23.5625 24.376C23.6694 24.376 23.7752 24.355 23.8739 24.3141C23.9726 24.2732 24.0623 24.2133 24.1378 24.1378C24.2133 24.0622 24.2733 23.9725 24.3141 23.8738C24.355 23.7751 24.3761 23.6693 24.3761 23.5625C24.3761 23.4557 24.355 23.3499 24.3141 23.2512C24.2733 23.1525 24.2133 23.0628 24.1378 22.9873L3.0128 1.86225C2.93726 1.78671 2.84757 1.72679 2.74887 1.6859C2.65017 1.64502 2.54438 1.62398 2.43755 1.62398C2.33072 1.62398 2.22493 1.64502 2.12623 1.6859C2.02753 1.72679 1.93784 1.78671 1.8623 1.86225C1.78676 1.9378 1.72683 2.02748 1.68595 2.12618C1.64507 2.22488 1.62402 2.33067 1.62402 2.4375C1.62402 2.54434 1.64507 2.65013 1.68595 2.74883C1.72683 2.84753 1.78676 2.93721 1.8623 3.01275L7.11105 8.2615C6.39667 8.76756 5.75387 9.36773 5.20005 10.0458C4.41582 11.008 3.80193 12.0973 3.38492 13.2665C3.3508 13.3656 3.30855 13.5021 3.30855 13.5021L3.2793 13.6029C3.2793 13.6029 3.1558 14.4105 3.85617 14.5958C4.06433 14.6508 4.28581 14.6209 4.47198 14.5128C4.65814 14.4046 4.79376 14.227 4.84905 14.0189L4.85067 14.014L4.86367 13.9734L4.92055 13.7963C5.27473 12.8091 5.79399 11.8893 6.45617 11.076C6.97674 10.4362 7.5928 9.8804 8.28268 9.42825L10.8469 11.9925C10.3295 12.3168 9.89178 12.7536 9.56643 13.2705C9.24109 13.7873 9.03644 14.3708 8.96772 14.9776C8.899 15.5844 8.96798 16.1989 9.16951 16.7754C9.37105 17.3519 9.69997 17.8756 10.1318 18.3074C10.5636 18.7392 11.0873 19.0681 11.6637 19.2697C12.2402 19.4712 12.8547 19.5402 13.4616 19.4715C14.0684 19.4027 14.6519 19.1981 15.1687 18.8727C15.6855 18.5474 16.1223 18.1097 16.4467 17.5923L16.445 17.5939ZM15.2425 16.3914C15.0866 16.7586 14.8428 17.082 14.5327 17.3331C14.2226 17.5841 13.8556 17.7552 13.4639 17.8313C13.0722 17.9074 12.6678 17.8862 12.2862 17.7695C11.9047 17.6528 11.5576 17.4443 11.2754 17.1621C10.9933 16.88 10.7847 16.5329 10.668 16.1513C10.5514 15.7698 10.5301 15.3654 10.6062 14.9737C10.6823 14.582 10.8534 14.215 11.1045 13.9049C11.3556 13.5947 11.6789 13.351 12.0462 13.195L15.2458 16.393L15.2425 16.3914ZM10.2701 6.825L11.6578 8.21275C12.0803 8.15588 12.5272 8.125 13.0001 8.125C16.3216 8.125 18.3398 9.607 19.5455 11.0776C20.2079 11.8908 20.7271 12.8107 21.0812 13.7979C21.1088 13.8759 21.1267 13.936 21.1381 13.975L21.151 14.0156V14.0205L21.1527 14.0221C21.2128 14.2249 21.3496 14.3963 21.5341 14.4998C21.7186 14.6033 21.9361 14.6307 22.1406 14.5764C22.345 14.522 22.5201 14.39 22.6288 14.2085C22.7374 14.0271 22.771 13.8104 22.7224 13.6045V13.5996L22.7208 13.5931L22.7143 13.572C22.6861 13.4694 22.6536 13.368 22.6168 13.2681C22.1998 12.0989 21.5859 11.0096 20.8017 10.0474C19.3457 8.268 16.8935 6.5 13.0033 6.5C11.9991 6.5 11.0907 6.617 10.2717 6.82338L10.2701 6.825Z" fill="#666666"/>
</svg>
