<svg width="12" height="12" viewBox="0 0 12 12" fill="none" xmlns="http://www.w3.org/2000/svg">
<path d="M6.91087 0V1.57258C7.72802 1.78286 8.45602 2.21258 9.02974 2.79772L10.3932 2.01029L11.536 3.98972L10.1737 4.77601C10.3958 5.5769 10.3958 6.42313 10.1737 7.22402L11.536 8.01031L10.3932 9.98974L9.02974 9.20231C8.44793 9.79569 7.71539 10.2193 6.91087 10.4275V12H4.62515V10.4275C3.82055 10.2195 3.08795 9.79587 2.50629 9.20231L1.14286 9.98974L0 8.01031L1.36229 7.22402C1.13997 6.42316 1.13997 5.57687 1.36229 4.77601L0 3.98972L1.14286 2.01029L2.50629 2.79658C3.08823 2.20385 3.8208 1.78106 4.62515 1.57372V0H6.91087ZM3.76687 4.89487C3.57927 5.23299 3.48094 5.61334 3.48115 6.00001C3.48115 6.40002 3.58515 6.77716 3.76687 7.10516L3.80801 7.17716C4.01087 7.51591 4.29805 7.79629 4.64156 7.99098C4.98507 8.18566 5.37317 8.28799 5.76801 8.28799C6.16285 8.28799 6.55096 8.18566 6.89447 7.99098C7.23797 7.79629 7.52516 7.51591 7.72802 7.17716L7.76916 7.10516C7.9564 6.76695 8.05434 6.38659 8.05373 6.00001C8.05373 5.60001 7.95088 5.22287 7.76916 4.89487L7.72802 4.82287C7.52516 4.48412 7.23797 4.20374 6.89447 4.00905C6.55096 3.81437 6.16285 3.71204 5.76801 3.71204C5.37317 3.71204 4.98507 3.81437 4.64156 4.00905C4.29805 4.20374 4.01087 4.48412 3.80801 4.82287L3.76687 4.89487Z" fill="#A5A5A5"/>
</svg>
