<svg width="23" height="21" viewBox="0 0 23 21" fill="none" xmlns="http://www.w3.org/2000/svg">
<path d="M12.4648 3.9375C12.4648 2.89321 12.8797 1.89169 13.6181 1.15327C14.3565 0.414843 15.358 0 16.4023 0C17.4466 0 18.4481 0.414843 19.1865 1.15327C19.925 1.89169 20.3398 2.89321 20.3398 3.9375V6.5625L22.0723 8.03119C22.1746 8.11812 22.2478 8.23432 22.282 8.36413C22.3161 8.49394 22.3097 8.63111 22.2635 8.75715C22.2173 8.88318 22.1335 8.99201 22.0235 9.06896C21.9136 9.14592 21.7826 9.18729 21.6484 9.1875H11.1576C11.0233 9.18729 10.8924 9.14592 10.7824 9.06896C10.6724 8.99201 10.5887 8.88318 10.5425 8.75715C10.4962 8.63111 10.4898 8.49394 10.524 8.36413C10.5582 8.23432 10.6313 8.11812 10.7336 8.03119L12.4661 6.5625V3.9375H12.4648ZM16.4023 11.8125C15.9952 11.8124 15.5982 11.6862 15.2658 11.4511C14.9335 11.2161 14.6821 10.8838 14.5464 10.5H18.2595C18.1237 10.884 17.8722 11.2165 17.5396 11.4515C17.207 11.6866 16.8096 11.8127 16.4023 11.8125ZM3.28125 5.25H11.1562V3.9375H3.28125C2.41101 3.9375 1.57641 4.2832 0.961056 4.89856C0.345702 5.51391 0 6.34851 0 7.21875V17.7188C0 18.589 0.345702 19.4236 0.961056 20.0389C1.57641 20.6543 2.41101 21 3.28125 21H17.7188C18.589 21 19.4236 20.6543 20.0389 20.0389C20.6543 19.4236 21 18.589 21 17.7188V10.5H19.6875V17.7188C19.6875 18.2409 19.4801 18.7417 19.1109 19.1109C18.7417 19.4801 18.2409 19.6875 17.7188 19.6875H3.28125C2.7591 19.6875 2.25835 19.4801 1.88913 19.1109C1.51992 18.7417 1.3125 18.2409 1.3125 17.7188V9.13894L10.1666 14.3469L10.2743 14.3968C10.3653 14.4304 10.4627 14.4433 10.5594 14.4347C10.6561 14.4261 10.7497 14.3961 10.8334 14.3469L14.2629 12.3283C13.9259 12.0373 13.6513 11.681 13.4557 11.2809L10.5 13.02L1.3125 7.61513V7.21875C1.3125 6.69661 1.51992 6.19585 1.88913 5.82663C2.25835 5.45742 2.7591 5.25 3.28125 5.25Z" fill="#354788"/>
</svg>
