<svg width="82" height="85" viewBox="0 0 82 85" fill="none" xmlns="http://www.w3.org/2000/svg">
<path d="M48.3195 8.7466C43.4495 7.42454 38.3732 7.17363 33.4363 7.98363C33.4377 7.97603 33.4392 7.96857 33.4408 7.96127C38.3849 7.15295 43.4677 7.40576 48.3435 8.72937C55.0458 10.5488 61.0541 14.3094 65.6099 19.5325C70.1655 24.7554 73.0644 31.2064 73.9429 38.0691C74.8213 44.9318 73.6402 51.9009 70.5477 58.0957C67.455 64.2908 62.5887 69.4348 56.5616 72.8749C50.5343 76.3151 43.618 77.8959 36.6877 77.4158C29.7575 76.9356 23.1276 74.4162 17.6361 70.1787C13.3764 66.8918 9.95041 62.6859 7.59912 57.9022L7.68909 57.8163C7.74086 57.8832 7.79834 57.9704 7.85412 58.0803C10.1852 62.6743 13.3394 66.8201 17.6851 70.1734C23.1679 74.4043 29.7833 76.9168 36.6942 77.3956C43.6051 77.8745 50.5043 76.2984 56.5195 72.8651C62.535 69.4316 67.3977 64.2941 70.49 58.0998C73.5824 51.9052 74.7646 44.9336 73.8856 38.0671C73.0067 31.2007 70.1066 24.7507 65.5548 19.5321C61.0032 14.3138 55.0048 10.5614 48.3195 8.7466ZM7.91347 57.6021C7.91326 57.6023 7.91307 57.6025 7.91286 57.6027L7.91347 57.6021Z" fill="#D9D9D9" stroke="#A7CC8A" stroke-width="15" stroke-linejoin="round"/>
</svg>
