<svg width="22" height="27" viewBox="0 0 22 27" fill="none" xmlns="http://www.w3.org/2000/svg">
<path d="M11 23.853L4.4 26.7154C3.35238 27.166 2.35714 27.0796 1.41429 26.4562C0.471429 25.8328 0 24.9524 0 23.8149V3.18041C0 2.3058 0.308 1.55681 0.924 0.933451C1.54 0.310092 2.27962 -0.00105744 3.14286 2.69984e-06H18.8571C19.7214 2.69984e-06 20.4616 0.311682 21.0776 0.935042C21.6936 1.5584 22.001 2.30686 22 3.18041V23.8133C22 24.9529 21.5286 25.8344 20.5857 26.4578C19.6429 27.0812 18.6476 27.167 17.6 26.7154L11 23.853Z" fill="#F8F8F8"/>
</svg>
