<svg width="24" height="24" viewBox="0 0 24 24" fill="none" xmlns="http://www.w3.org/2000/svg">
<path d="M15.4139 14H14.6283L14.3499 13.73C15.3581 12.554 15.9122 11.0527 15.9111 9.50003C15.9111 8.21445 15.532 6.95774 14.8218 5.88882C14.1115 4.8199 13.102 3.98678 11.9209 3.49481C10.7397 3.00284 9.44008 2.87412 8.1862 3.12492C6.93233 3.37573 5.78058 3.99479 4.87659 4.90383C3.9726 5.81287 3.35697 6.97106 3.10756 8.23194C2.85815 9.49282 2.98616 10.7997 3.47539 11.9875C3.96463 13.1752 4.79312 14.1904 5.8561 14.9046C6.91908 15.6188 8.16881 16 9.44725 16C11.0483 16 12.5201 15.41 13.6537 14.43L13.9222 14.71V15.5L18.8945 20.49L20.3762 19L15.4139 14ZM9.44725 14C6.97108 14 4.97225 11.99 4.97225 9.50003C4.97225 7.01003 6.97108 5.00003 9.44725 5.00003C11.9234 5.00003 13.9222 7.01003 13.9222 9.50003C13.9222 11.99 11.9234 14 9.44725 14Z" fill="#666666"/>
</svg>
