<svg width="21" height="26" viewBox="0 0 21 26" fill="none" xmlns="http://www.w3.org/2000/svg">
<path d="M10.4506 2.32236C12.6064 2.32236 14.6738 3.17873 16.1982 4.70307C17.7225 6.22742 18.5789 8.29487 18.5789 10.4506V11.6118H20.9012V10.4506C20.9012 7.67895 19.8002 5.02079 17.8403 3.06092C15.8805 1.10104 13.2223 0 10.4506 0C7.67895 0 5.02079 1.10104 3.06092 3.06092C1.10104 5.02079 0 7.67895 0 10.4506C0 14.6738 2.5755 18.4349 4.94895 21.0313C6.29415 22.494 7.76993 23.8311 9.35795 25.0258C9.81081 25.3648 10.2834 25.6783 10.749 26L12.0658 24.0864C11.6234 23.7821 11.1752 23.486 10.7456 23.1644C9.27535 22.0571 7.90883 20.8184 6.66285 19.4637C4.39158 16.9799 2.32236 13.7739 2.32236 10.4506C2.32236 8.29487 3.17873 6.22742 4.70307 4.70307C6.22742 3.17873 8.29487 2.32236 10.4506 2.32236ZM10.4506 8.12826C9.8347 8.12826 9.24399 8.37294 8.80847 8.80847C8.37294 9.24399 8.12826 9.83469 8.12826 10.4506C8.12826 11.0666 8.37294 11.6573 8.80847 12.0928C9.24399 12.5283 9.8347 12.773 10.4506 12.773C11.0666 12.773 11.6573 12.5283 12.0928 12.0928C12.5283 11.6573 12.773 11.0666 12.773 10.4506C12.773 9.83469 12.5283 9.24399 12.0928 8.80847C11.6573 8.37294 11.0666 8.12826 10.4506 8.12826ZM5.8059 10.4506C5.8059 9.21877 6.29526 8.03736 7.16631 7.16631C8.03736 6.29525 9.21877 5.8059 10.4506 5.8059C11.6825 5.8059 12.8639 6.29525 13.7349 7.16631C14.606 8.03736 15.0953 9.21877 15.0953 10.4506C15.0953 11.6825 14.606 12.8639 13.7349 13.7349C12.8639 14.606 11.6825 15.0953 10.4506 15.0953C9.21877 15.0953 8.03736 14.606 7.16631 13.7349C6.29526 12.8639 5.8059 11.6825 5.8059 10.4506Z" fill="#F8F8F8"/>
</svg>
