<svg width="166" height="155" viewBox="0 0 166 155" fill="none" xmlns="http://www.w3.org/2000/svg">
<g clip-path="url(#clip0_30_957)">
<path d="M94.5422 155.13C63.2227 155.13 31.968 155.129 0.713334 155.142C0.227106 155.143 0.117553 155.032 0.117676 154.544C0.130544 103.268 0.130544 51.992 0.117676 0.715783C0.117553 0.227866 0.227123 0.117928 0.713331 0.118042C55.6576 0.130892 110.602 0.130892 165.546 0.118042C166.032 0.117928 166.142 0.227866 166.142 0.715783C166.129 51.992 166.129 103.268 166.142 154.544C166.142 155.032 166.032 155.143 165.546 155.142C141.9 155.128 118.253 155.13 94.5422 155.13Z" fill="white"/>
<path d="M128.245 105.5C129.43 105.369 130.127 105.641 130.481 106.35C130.719 106.828 130.69 107.243 130.191 107.508C128.688 108.309 127.157 109.051 125.402 109.041C124.895 109.038 124.547 109.286 124.194 109.57C123.42 110.192 122.685 110.863 121.855 111.417C121.309 111.782 120.74 111.929 120.084 111.862C118.797 111.732 117.505 111.649 116.216 111.531C115.81 111.493 115.589 111.582 115.436 112.027C114.943 113.456 114.257 113.799 113.001 113.768C111.315 113.728 109.645 113.548 107.969 113.409C106.913 113.322 105.715 113.243 104.863 113.745C103.808 114.367 102.807 114.112 101.804 114.113C78.5481 114.143 55.2917 114.132 32.0353 114.156C31.4181 114.156 31.2234 113.974 31.1551 113.415C31.0426 112.494 30.8407 111.582 30.7559 110.659C30.7208 110.275 30.5674 110.215 30.2622 110.166C29.0336 109.968 27.8006 109.787 26.5988 109.452C25.5711 109.165 25.4577 108.954 25.6984 107.928C26.0642 106.367 26.1804 104.771 26.3154 103.181C26.5096 100.896 26.6996 98.6115 26.9381 96.33C27.1874 93.9445 27.5217 91.5726 27.8846 89.2035C28.2142 87.0518 28.5595 84.9024 28.8867 82.7502C29.1652 80.9175 29.4326 79.083 29.6965 77.2481C30.2425 73.4522 30.5606 69.6285 31.4346 65.8738C32.2078 62.5519 34.1548 60.2262 36.8995 58.4141C39.1321 56.94 41.4992 55.7555 44.0225 54.8677C46.1364 54.124 48.0899 53.0187 50.0941 52.0321C52.0213 51.0835 54.0509 50.3961 56.0394 49.604C56.9008 49.2608 57.631 48.8154 58.0877 47.9497C58.481 47.204 59.1883 46.8888 60.0201 46.8443C60.4944 46.8189 60.9683 46.7809 61.441 46.7347C62.5831 46.6231 63.0846 46.1225 63.1465 44.9778C63.2096 43.8102 63.3417 42.6312 63.2412 41.4749C63.1613 40.5568 62.7968 39.659 62.5206 38.764C62.239 37.8517 61.7284 36.9642 61.6772 36.0456C61.65 35.5595 61.1053 35.4843 61.2537 35.04C61.4068 34.5817 61.2839 34.0975 61.3177 33.6258C61.3227 33.5562 61.2541 33.4695 61.1995 33.4091C60.3225 32.4382 59.8454 31.2078 59.0977 30.1528C58.5232 29.3422 58.2645 28.4363 58.23 27.4352C58.1868 26.183 57.7971 24.9692 57.7705 23.7068C57.7591 23.1627 57.747 22.6243 57.8368 22.0893C57.8958 21.7384 58.0559 21.4796 58.4859 21.5749C58.9964 21.6881 59.3319 21.3982 59.3092 20.8653C59.1692 17.5812 59.6123 14.3616 60.3953 11.1832C60.8073 9.51089 61.5157 7.98608 62.6962 6.70113C63.2093 6.14252 63.832 5.71729 64.4371 5.29655C66.5284 3.84243 68.865 2.93266 71.3362 2.34227C73.1672 1.90485 74.9768 1.92367 76.8255 2.27925C79.5799 2.80903 81.9906 4.03917 83.9095 6.02021C85.7688 7.93966 87.1428 10.2305 87.9678 12.8283C88.5896 14.7864 88.6798 16.8459 89.2233 18.8139C89.2918 19.0621 89.3572 19.3152 89.4628 19.5483C89.6246 19.9052 89.7844 20.1848 90.2587 19.8104C90.7248 19.4424 91.2314 19.733 91.4004 20.4429C91.7178 21.7761 91.8614 23.1312 91.5528 24.4813C91.3799 25.2377 91.3918 25.985 91.4501 26.7384C91.5149 27.5755 91.2956 28.316 90.8097 28.9879C90.5275 29.378 90.3469 29.807 90.249 30.2832C90.1029 30.9939 89.7253 31.593 89.2824 32.1574C89.0122 32.5018 88.7621 32.8626 89.0613 33.3264C89.1173 33.4132 89.1362 33.5131 89.058 33.6233C88.656 34.1895 88.8766 34.8523 88.7711 35.4603C88.6544 36.1326 88.4393 36.7782 88.5246 37.4801C88.5651 37.8139 87.986 37.863 88.0959 38.3123C88.1626 38.6479 88.0234 38.883 87.8647 39.1646C87.9394 39.9912 87.3515 40.5095 87.102 41.1576C86.8848 41.7219 86.7097 42.3459 86.3909 42.8134C86.1293 43.197 86.0373 43.5462 85.915 43.9548C85.7947 44.3571 85.8864 44.406 85.7617 44.7063C85.6051 45.0831 85.6412 45.4464 85.5389 45.7997C85.5076 45.9076 85.4417 46.0176 85.5366 46.0679C86.3018 46.4729 86.6387 47.4527 87.652 47.5551C88.406 47.6313 89.0444 48.0503 89.6716 48.4968C90.779 49.2851 92.0671 49.738 93.3327 50.1886C96.0788 51.1664 98.6878 52.4807 101.436 53.449C103.074 54.0263 104.764 54.3971 106.452 54.7967C109.348 55.4826 111.674 56.9157 112.757 59.9182C113.17 61.0635 113.769 62.1409 114.646 63.1331C114.646 62.4747 114.646 61.8162 114.654 61.0975C114.674 61.0156 114.687 60.994 114.683 60.9386C114.663 60.8078 114.659 60.7107 114.662 60.5654C114.751 60.2869 114.698 60.0495 114.689 59.7739C114.669 59.4254 114.666 59.1184 114.671 58.7542C114.733 58.5807 114.69 58.3675 114.966 58.4816C115.12 58.8229 115.08 59.1355 115.093 59.5017C115.038 61.5699 115.358 63.5697 115.226 65.6414C115.233 66.5582 115.259 67.4139 115.194 68.3279C114.979 69.4537 115.093 70.5396 115.007 71.6156C114.948 72.3669 114.962 73.1247 114.801 73.924C114.328 75.6945 113.927 77.4256 113.496 79.2041C113.038 80.9062 112.637 82.5684 112.207 84.2767C111.666 86.1113 111.203 87.9144 110.656 89.7462C110.141 91.3544 109.662 92.9213 109.103 94.5119C108.821 95.1323 108.618 95.7349 108.338 96.3508C108.313 96.417 108.303 96.4429 108.277 96.5061C108.25 96.567 108.238 96.5907 108.21 96.6486C108.18 96.7048 108.169 96.7268 108.139 96.7806C108.096 96.8529 108.072 96.8936 108.033 96.9651C108.008 97.0161 107.998 97.0365 107.973 97.0869C107.937 97.1564 107.916 97.196 107.881 97.2658C107.856 97.3159 107.845 97.3357 107.815 97.3835C107.769 97.4476 107.742 97.4834 107.696 97.5479C107.644 97.6359 107.613 97.6962 107.58 97.792C107.619 98.0348 107.748 97.8736 107.88 97.871C108.276 97.739 108.618 97.5756 109.034 97.4991C109.102 97.4716 109.129 97.4602 109.197 97.4315C109.266 97.4036 109.294 97.3929 109.364 97.3687C109.82 97.2769 110.194 97.0999 110.601 96.8804C110.818 96.7947 111.006 96.766 111.228 96.6846C111.657 96.5496 112.051 96.471 112.478 96.3148C112.816 96.2424 113.107 96.2522 113.452 96.2503C114.031 96.2595 114.555 96.2544 115.134 96.2572C115.79 96.2957 116.326 96.4828 116.769 96.9915C117.068 97.457 117.223 97.9338 117.439 98.382C117.63 98.7788 117.515 99.0978 117.21 99.3683C117.033 99.5259 116.807 99.6289 116.654 99.8124C115.107 101.671 112.975 102.204 110.719 102.458C110.183 102.519 109.647 102.579 109.114 102.663C108.795 102.714 108.476 102.791 108.19 102.952C107.947 103.089 107.638 103.233 107.642 103.538C107.646 103.857 108.006 103.87 108.231 103.949C109.818 104.506 111.36 105.2 113.034 105.49C113.5 105.571 113.977 105.668 114.397 105.895C115.715 106.607 117.133 106.597 118.564 106.517C118.714 106.509 118.864 106.481 119.065 106.496C119.21 106.521 119.306 106.517 119.449 106.481C119.595 106.453 119.694 106.449 119.844 106.458C120.16 106.545 120.432 106.549 120.759 106.537C121.567 106.544 122.285 106.317 123.012 106.169C123.624 106.044 124.228 105.975 124.902 106.048C125.834 106.242 126.682 106.196 127.484 105.743C127.703 105.619 127.925 105.482 128.245 105.5Z" fill="#1F1E1A"/>
<path d="M136.625 29.7292C136.748 29.7279 136.815 29.7346 136.926 29.768C137.28 29.8263 137.589 29.8907 137.941 29.9078C137.979 29.9363 137.986 29.9324 137.985 29.9364C138.036 29.9995 138.053 30.0674 138.019 30.1963C138.002 30.2486 138.014 30.2976 137.997 30.3163C137.893 30.418 137.933 30.5308 137.886 30.6592C137.613 31.6745 137.171 32.5883 136.803 33.5278C135.296 37.3748 133.989 41.2916 132.681 45.2587C132.601 45.36 132.605 45.44 132.564 45.5448C132.547 45.5788 132.562 45.6281 132.55 45.6508C132.47 45.7437 132.475 45.8425 132.429 45.9702C132.417 46.0145 132.431 46.0161 132.431 46.0232C132.329 46.1299 132.35 46.2636 132.311 46.429C132.288 46.4708 132.292 46.4625 132.295 46.4663C132.297 46.4702 132.247 46.508 132.219 46.5206C132.19 46.5333 132.158 46.5857 132.158 46.5857C132.158 46.5857 132.204 46.6273 132.209 46.6605C132.212 46.7394 132.203 46.7833 132.171 46.857C132.157 46.8886 132.167 46.9341 132.158 46.9557C132.084 47.0414 132.086 47.1307 132.049 47.2507C132.037 47.2913 132.043 47.3333 132.032 47.3513C131.793 47.7996 131.705 48.3203 131.19 48.5577C130.871 48.7045 130.555 48.7241 130.405 48.3929C129.773 46.9971 128.676 45.9329 127.838 44.6855C127.668 44.4329 127.545 44.1561 127.398 43.8918C127.176 43.4929 126.904 43.3639 126.443 43.6006C125.053 44.314 123.791 45.203 122.595 46.2047C121.606 47.0327 120.45 47.629 119.507 48.5448C118.988 49.0498 118.186 49.2493 117.57 49.6907C116.789 50.2508 116.006 50.8085 115.217 51.358C114.987 51.5185 114.697 51.6816 114.543 51.1818C114.48 50.9557 114.446 50.7674 114.415 50.5316C114.483 50.1251 114.444 49.7639 114.414 49.3635C114.138 48.3175 114.127 47.2805 114.009 46.2586C113.763 44.1173 113.547 41.9727 113.247 39.8372C112.956 37.7672 112.724 35.6887 112.427 33.6196C112.231 32.2554 111.966 30.9012 111.732 29.5426C111.721 29.4787 111.7 29.4165 111.69 29.3525C111.498 28.1934 111.639 28.0767 112.786 28.1616C114.632 28.2984 116.483 28.3841 118.332 28.4798C118.848 28.5065 119.368 28.4648 119.924 28.6454C120.586 28.7424 121.197 28.6838 121.854 28.6651C123.034 28.2417 124.207 28.0163 125.389 27.8424C125.917 27.7648 126.376 28.0579 126.768 28.3163C128.341 29.3528 130.127 29.2726 131.876 29.395C132.37 29.4296 132.868 29.3955 133.406 29.5449C134.499 29.583 135.528 29.7653 136.625 29.7292Z" fill="#84DB53"/>
<path d="M66.5884 135.959C65.9135 135.117 65.0211 135.071 64.0958 135.084C62.8993 135.101 62.8989 135.088 62.8989 136.3C62.8987 139.727 62.8856 143.153 62.9125 146.58C62.9166 147.107 62.7609 147.22 62.2711 147.203C61.1918 147.166 60.1092 147.161 59.0303 147.204C58.5061 147.225 58.3504 147.108 58.3518 146.548C58.3729 138.328 58.3665 130.109 58.3666 121.889C58.3666 121.065 58.3912 120.24 58.3564 119.417C58.3387 118.999 58.4854 118.918 58.8694 118.921C61.1385 118.938 63.408 118.909 65.6769 118.935C69.2411 118.977 71.2121 120.788 71.5157 124.337C71.661 126.037 71.6975 127.75 71.3188 129.43C70.987 130.902 70.1924 132.047 68.7154 132.716C69.4247 133.098 70.1235 133.404 70.5709 134.085C71.3725 135.306 71.5453 136.68 71.5769 138.074C71.6295 140.393 71.6111 142.714 71.6266 145.034C71.6314 145.765 71.8025 146.464 72.1255 147.192C70.6648 147.192 69.2652 147.178 67.8662 147.199C67.4126 147.206 67.3988 146.859 67.3379 146.602C67.1594 145.847 67.1092 145.071 67.0996 144.298C67.0712 142.022 67.0724 139.746 67.044 137.47C67.0375 136.95 66.9084 136.444 66.5884 135.959Z" fill="#201F1C"/>
<path d="M104.237 132.31C105.11 129.739 105.957 127.214 106.804 124.69C107.415 122.87 108.038 121.054 108.629 119.227C108.76 118.821 108.938 118.67 109.383 118.678C111.154 118.708 112.927 118.703 114.698 118.681C115.152 118.676 115.305 118.826 115.3 119.279C115.277 121.252 115.371 123.231 115.249 125.196C115.145 126.862 115.184 128.522 115.169 130.184C115.129 134.468 115.009 138.75 114.999 143.035C114.996 144.365 114.935 145.705 114.917 147.04C114.913 147.357 114.808 147.442 114.505 147.439C113.187 147.424 111.869 147.425 110.551 147.436C110.086 147.44 109.956 147.21 109.971 146.787C110.024 145.318 110.048 143.848 110.113 142.38C110.132 141.955 110.01 141.834 109.584 141.845C108.396 141.875 107.207 141.871 106.019 141.847C105.672 141.839 105.538 141.963 105.441 142.279C104.957 143.846 104.444 145.403 103.958 146.969C103.856 147.297 103.727 147.454 103.342 147.443C102.198 147.411 101.052 147.439 99.9068 147.43C99.3312 147.426 99.1859 147.209 99.3776 146.644C100.96 141.982 102.545 137.321 104.129 132.659C104.163 132.56 104.184 132.456 104.237 132.31Z" fill="#201F1B"/>
<path d="M45.3778 145.905C44.2996 144.864 43.7859 143.601 43.5568 142.19C43.428 141.396 43.4359 140.601 43.4361 139.804C43.4378 134.837 43.4204 129.87 43.4564 124.903C43.4686 123.213 43.9742 121.634 45.1183 120.358C46.0311 119.34 47.2607 118.798 48.59 118.598C50.159 118.362 51.7302 118.419 53.2328 119.03C55.1641 119.815 56.2067 121.335 56.6661 123.304C56.85 124.093 56.9274 124.899 56.9257 125.716C56.9156 130.748 56.9381 135.78 56.9094 140.811C56.9021 142.096 56.6563 143.362 56.0278 144.507C55.1613 146.088 53.8198 147.026 52.0558 147.352C50.0254 147.728 48.0536 147.658 46.2199 146.56C45.9252 146.383 45.6435 146.194 45.3778 145.905Z" fill="#201F1B"/>
<path d="M121.225 140.905C121.091 141.339 121.092 141.735 121.174 142.111C121.384 143.07 122.527 143.49 123.634 143.058C124.772 142.615 125.062 141.62 125.275 140.572C125.695 138.508 124.83 136.882 123.515 135.413C122.486 134.262 121.41 133.159 120.528 131.872C119.049 129.714 118.803 127.364 119.354 124.907C119.811 122.869 120.684 121.033 122.436 119.736C124.065 118.528 125.911 118.166 127.879 118.26C128.819 118.305 129.725 118.477 130.581 118.926C132.101 119.722 132.776 121.047 132.913 122.663C133.02 123.927 132.941 125.199 132.679 126.454C132.599 126.833 132.515 127.049 132.046 127.033C130.859 126.993 129.669 127.014 128.48 127.023C128.037 127.026 127.805 126.966 127.928 126.391C128.063 125.765 128.133 125.118 128.183 124.469C128.3 122.937 127.118 122.579 125.883 122.98C124.621 123.389 124.385 124.522 124.239 125.643C124.031 127.235 124.712 128.525 125.688 129.711C126.753 131.006 127.971 132.161 128.955 133.535C130.213 135.293 130.65 137.24 130.44 139.33C130.261 141.119 129.831 142.856 128.805 144.394C127.361 146.558 125.35 147.665 122.769 147.738C121.778 147.766 120.782 147.795 119.809 147.533C117.818 146.996 116.52 145.309 116.39 143.132C116.308 141.764 116.546 140.427 116.746 139.086C116.798 138.731 116.966 138.534 117.422 138.556C118.543 138.609 119.668 138.572 120.792 138.573C121.53 138.574 121.631 138.725 121.47 139.47C121.371 139.926 121.323 140.392 121.225 140.905Z" fill="#201F1B"/>
<path d="M144.587 130.199C144.949 130.679 144.668 131.11 144.599 131.541C144.454 132.45 144.284 133.355 144.144 134.265C144.094 134.591 143.975 134.713 143.62 134.708C141.934 134.685 140.248 134.728 138.564 134.68C138.062 134.666 137.945 134.875 137.879 135.273C137.484 137.631 137.085 139.987 136.683 142.344C136.663 142.464 136.603 142.578 136.536 142.766C137.894 142.766 139.205 142.766 140.516 142.766C141.488 142.766 142.461 142.787 143.433 142.758C143.94 142.743 144.173 142.91 144.083 143.432C143.867 144.69 143.642 145.947 143.44 147.207C143.397 147.475 143.229 147.432 143.066 147.432C139.198 147.433 135.33 147.432 131.462 147.433C130.98 147.433 130.797 147.198 130.88 146.731C131.512 143.198 132.151 139.666 132.773 136.131C133.357 132.809 133.919 129.482 134.5 126.159C134.919 123.762 135.364 121.369 135.77 118.97C135.819 118.676 135.949 118.689 136.148 118.689C140.06 118.69 143.971 118.694 147.882 118.684C148.316 118.683 148.414 118.906 148.355 119.256C148.149 120.475 147.913 121.689 147.721 122.91C147.658 123.311 147.403 123.24 147.155 123.24C144.972 123.242 142.79 123.25 140.607 123.234C140.168 123.23 139.973 123.28 139.895 123.821C139.627 125.679 139.252 127.522 138.926 129.372C138.791 130.14 138.801 130.141 139.558 130.143C141.222 130.147 142.886 130.153 144.587 130.199Z" fill="#201F1B"/>
<path d="M99.3674 134.204C99.3872 134.656 99.1601 134.706 98.83 134.704C97.166 134.692 95.5015 134.715 93.8378 134.687C93.362 134.679 93.1798 134.795 93.1005 135.303C92.7343 137.648 92.3357 139.989 91.8892 142.319C91.8017 142.776 91.9285 142.771 92.2653 142.77C94.3832 142.762 96.5013 142.765 98.6193 142.767C99.315 142.768 99.4139 142.888 99.2962 143.581C99.097 144.754 98.8806 145.925 98.6983 147.101C98.6282 147.552 98.3063 147.429 98.0563 147.43C95.4196 147.438 92.7829 147.434 90.1463 147.433C89.044 147.433 87.9418 147.433 86.8396 147.431C86.2118 147.43 86.0248 147.235 86.1268 146.634C86.3443 145.352 86.5831 144.074 86.8083 142.793C87.2266 140.414 87.6333 138.033 88.0604 135.656C88.3885 133.829 88.7951 132.016 89.0691 130.181C89.4933 127.343 90.0626 124.53 90.5297 121.7C90.6746 120.822 90.8833 119.953 91.0081 119.072C91.0517 118.765 91.1239 118.682 91.4284 118.683C95.3186 118.693 99.2088 118.693 103.099 118.685C103.544 118.684 103.666 118.862 103.587 119.282C103.372 120.431 103.158 121.582 102.979 122.737C102.918 123.134 102.774 123.256 102.366 123.252C100.162 123.229 97.9569 123.246 95.7525 123.236C95.398 123.234 95.221 123.259 95.1495 123.716C94.8163 125.845 94.4129 127.964 94.0245 130.143C95.7965 130.143 97.5436 130.142 99.2907 130.143C99.9677 130.144 100.089 130.269 99.9726 130.949C99.7899 132.018 99.5775 133.082 99.3674 134.204Z" fill="#201F1B"/>
<path d="M22.4053 147.544C20.7587 147.582 19.2363 147.389 17.8742 146.461C16.5403 145.552 15.8826 144.224 15.5793 142.714C15.3568 141.606 15.287 140.469 15.2995 139.33C15.3038 138.932 15.3638 138.751 15.8209 138.765C16.922 138.799 18.0252 138.791 19.1268 138.767C19.505 138.759 19.5922 138.887 19.5939 139.248C19.598 140.087 19.5079 140.93 19.7078 141.765C19.9893 142.942 20.6689 143.45 22.0021 143.428C23.0923 143.41 23.8188 142.81 24.0075 141.721C24.3434 139.782 23.8614 138.08 22.5802 136.571C21.6416 135.466 20.5187 134.567 19.4861 133.567C17.8746 132.007 16.3398 130.365 15.7775 128.098C15.1663 125.634 15.2335 123.222 16.6237 120.991C17.5544 119.497 19.0123 118.829 20.6687 118.577C22.0199 118.37 23.3684 118.44 24.686 118.893C26.7118 119.589 27.7686 121.103 28.2564 123.095C28.5197 124.17 28.5375 125.273 28.5399 126.376C28.5406 126.703 28.4292 126.77 28.1313 126.766C26.9861 126.75 25.8402 126.742 24.6955 126.768C24.2948 126.778 24.2558 126.612 24.2499 126.275C24.2384 125.611 24.3268 124.947 24.1557 124.283C23.8367 123.044 23.0384 122.466 21.7395 122.596C20.6948 122.701 20.0506 123.572 19.959 124.76C19.7944 126.897 20.8039 128.466 22.2202 129.884C23.3431 131.007 24.5297 132.063 25.6771 133.16C28.8298 136.174 29.2714 140.851 27.85 144.239C27.0437 146.16 25.4003 147.147 23.3585 147.45C23.0629 147.493 22.7636 147.513 22.4053 147.544Z" fill="#201F1B"/>
<path d="M34.1176 143.027C34.1177 144.306 34.1035 145.521 34.1265 146.735C34.1336 147.106 34.023 147.207 33.6589 147.2C32.4925 147.177 31.3252 147.178 30.1588 147.2C29.7978 147.206 29.6901 147.11 29.6905 146.737C29.7007 137.63 29.7011 128.523 29.6882 119.416C29.6877 119.006 29.8032 118.917 30.194 118.921C32.3978 118.94 34.6027 118.892 36.8056 118.939C39.124 118.99 41.0238 119.842 42.087 122.057C42.4952 122.908 42.7376 123.826 42.7578 124.765C42.7992 126.688 42.9391 128.619 42.662 130.535C42.2082 133.672 40.1222 135.559 36.9136 135.607C36.1575 135.618 35.4 135.633 34.6452 135.599C34.2249 135.58 34.103 135.702 34.1071 136.132C34.1289 138.408 34.1175 140.685 34.1176 143.027Z" fill="#1F1E1B"/>
<path d="M127.543 65.663C128.185 65.5318 128.735 65.209 129.366 65.1552C130.092 65.0933 130.751 65.2441 131.221 65.8372C131.681 66.4176 131.573 67.0488 131.269 67.6641C131.069 68.0692 130.854 68.4667 130.62 68.9172C131.619 69.0984 132.393 69.6024 132.786 70.5762C133.067 71.2734 132.932 71.9285 132.549 72.5521C132.447 72.7168 132.247 72.8484 132.621 73.0206C133.878 73.599 134.35 75.1107 133.683 76.3448C133.307 77.0425 132.853 77.6923 132.728 78.5115C132.669 78.8934 132.656 79.2292 132.838 79.5713C133.537 80.8889 133.469 82.1106 132.444 83.2608C131.094 84.7771 129.742 86.2942 128.651 88.0223C128.351 88.499 127.851 88.7309 127.28 88.9049C126.796 88.7745 126.852 88.3647 126.824 88.0562C126.732 87.0247 126.618 85.9945 126.642 84.9531C126.668 83.8272 126.619 83.7996 125.512 83.7302C124.331 83.6562 123.489 82.9228 123.326 81.7731C123.407 81.187 123.769 80.9108 124.225 80.7077C124.635 80.5254 125.059 80.392 125.487 80.2642C124.026 80.546 123.057 80.0159 122.68 78.7399C122.556 78.3232 122.546 77.9143 122.813 77.5643C123.081 77.2121 123.045 76.9324 122.798 76.5796C122.319 75.8951 122.24 75.1468 122.626 74.3325C123.087 73.6555 123.747 73.2703 124.343 72.8173C124.653 72.5817 124.818 72.4005 124.486 72.0601C124.303 71.8733 124.244 71.6067 124.143 71.3181C123.999 70.6869 124.161 70.1854 124.473 69.6748C125.006 68.802 125.674 68.0354 126.286 67.1661C126.487 66.8128 126.633 66.4844 126.803 66.1693C126.95 65.8972 127.097 65.5859 127.543 65.663Z" fill="#1F1F1B"/>
<path d="M71.9765 119.358C71.912 118.794 72.2831 118.934 72.5285 118.933C75.6626 118.928 78.7966 118.93 81.9307 118.93C83.033 118.93 84.1355 118.943 85.2375 118.922C85.6024 118.915 85.7201 119.02 85.7113 119.395C85.6869 120.435 85.6873 121.477 85.7108 122.518C85.719 122.885 85.6172 123.001 85.2437 122.993C84.0554 122.97 82.8656 123.01 81.6779 122.973C81.1832 122.958 81.0377 123.077 81.0393 123.599C81.0596 129.846 81.0522 136.093 81.0522 142.34C81.0522 143.793 81.0368 145.246 81.0627 146.699C81.0699 147.1 80.97 147.213 80.5654 147.202C79.4206 147.173 78.2735 147.162 77.1295 147.205C76.6114 147.224 76.5032 147.064 76.5043 146.566C76.5208 138.996 76.5157 131.426 76.5156 123.857C76.5156 122.985 76.5156 122.985 75.6284 122.985C74.6125 122.985 73.5949 122.949 72.5815 122.999C72.0415 123.026 71.9493 122.829 71.9662 122.35C72.0006 121.375 71.9764 120.398 71.9765 119.358Z" fill="#1F1E1A"/>
<path d="M114.505 51.2047C115.081 51.7773 115.527 51.0437 115.707 50.8413C116.25 50.2327 116.96 49.8921 117.604 49.5016C119.642 48.2667 121.492 46.7896 123.368 45.3373C124.385 44.5507 125.489 43.8855 126.64 43.3053C127.13 43.0585 127.36 43.4606 127.511 43.7355C127.976 44.5825 128.432 45.3928 129.169 46.074C129.7 46.5649 130.004 47.3161 130.365 47.9753C130.733 48.6455 131.003 48.7043 131.507 48.1162C131.684 47.9097 131.798 47.6482 131.98 47.3906C131.419 49.4615 130.818 51.5537 130.209 53.6951C130.099 53.8378 130.088 53.9727 130.041 54.0926C129.791 54.7402 129.507 54.774 129.05 54.2589C128.191 53.2903 127.433 52.2502 126.737 51.1599C126.507 50.7999 126.175 50.5177 125.946 50.1418C125.707 49.748 125.37 49.9514 125.126 50.1834C124.323 50.9462 123.433 51.5958 122.492 52.1656C121.177 52.9612 120.024 53.9709 118.788 54.8705C118.008 55.4388 117.204 56.0405 116.331 56.4075C115.803 56.6292 115.484 57.102 114.903 57.2274C114.711 57.1447 114.711 57.0121 114.715 56.8297C114.795 56.5228 114.79 56.2627 114.728 55.9532C114.702 55.5696 114.72 55.2339 114.686 54.8519C114.61 53.6253 114.553 52.4453 114.505 51.2047Z" fill="#7ACF56"/>
<path d="M123.46 81.5616C123.332 82.6006 124.575 83.5595 125.482 83.5562C126.817 83.5513 126.888 83.6692 126.84 85.0499C126.796 86.3249 126.914 87.5876 127.196 88.876C126.918 89.3223 127.117 89.7865 127.12 90.2194C127.125 90.994 127.203 91.7681 127.241 92.6025C127.133 92.7006 127.064 92.6583 127.017 92.5776C125.987 90.8032 124.603 89.2875 123.429 87.6192C122.723 86.6151 122.029 85.5994 121.357 84.5724C121.069 84.1324 120.698 83.7746 120.395 83.3544C120.127 82.9827 119.74 83.0729 119.488 83.332C118.618 84.2274 117.483 84.7504 116.52 85.5194C115.415 86.4019 114.212 87.1705 113.022 87.9469C112.251 88.4498 111.474 88.9585 110.91 89.7182C110.831 89.8254 110.711 89.8836 110.532 89.8274C110.995 88.0048 111.494 86.2117 112.018 84.3773C112.171 84.1352 112.32 83.9622 112.52 83.8202C115.013 82.0539 117.622 80.4524 120.012 78.5369C120.871 77.8483 121.169 77.9316 121.745 78.8689C121.869 79.0715 121.964 79.2978 122.13 79.4679C122.709 80.0613 123.34 80.6177 123.46 81.5616Z" fill="#39855E"/>
<path d="M110.471 89.8395C110.558 89.7844 110.653 89.7929 110.68 89.7543C111.561 88.4591 112.974 87.8336 114.199 86.9845C115.673 85.9623 117.065 84.8216 118.604 83.8917C118.857 83.7392 119.043 83.4782 119.266 83.2748C119.836 82.7562 120.156 82.8378 120.659 83.3941C121.424 84.2405 122.098 85.1888 122.644 86.1427C123.426 87.5099 124.629 88.5474 125.32 89.964C125.539 90.4141 125.928 90.81 126.315 91.1412C126.784 91.5418 126.978 92.0576 127.193 92.6329C127.403 94.7485 127.576 96.8344 127.744 98.9789C127.381 98.9889 127.431 98.6656 127.374 98.4447C127.214 97.8258 127.016 97.2522 126.467 96.8472C126.151 96.6136 126.017 96.2171 125.808 95.8906C124.792 94.3063 123.544 92.8957 122.487 91.3377C121.617 90.0563 120.657 88.8285 119.778 87.5474C119.591 87.2744 119.367 87.2182 119.126 87.423C118.515 87.9424 117.793 88.3005 117.161 88.7792C115.833 89.7852 114.423 90.6631 113.026 91.56C112.535 91.875 112.044 92.1716 111.613 92.578C111.207 92.9612 110.76 93.3177 110.218 93.5051C109.836 93.6372 109.678 93.9858 109.443 94.2613C109.312 94.4154 109.294 94.691 108.965 94.6435C109.435 93.0369 109.941 91.459 110.471 89.8395Z" fill="#307B5E"/>
<path d="M114.846 57.1952C114.941 57.1364 115.058 57.1419 115.063 57.1228C115.25 56.2568 116.169 56.5153 116.654 56.0833C117.179 55.6155 117.843 55.3154 118.429 54.9242C119.302 54.3418 120.075 53.6107 120.925 52.9904C121.652 52.4593 122.414 51.9711 123.187 51.5083C123.84 51.117 124.397 50.6166 124.95 50.1064C125.572 49.5332 125.76 49.6512 126.267 50.3165C126.773 50.9784 127.205 51.6867 127.709 52.345C128.22 53.0117 128.76 53.6557 129.262 54.3288C129.49 54.6349 129.637 54.4891 129.83 54.3149C129.998 54.1633 129.857 53.8641 130.156 53.7536C129.727 55.7072 129.252 57.6701 128.764 59.6837C128.268 59.989 128.028 59.6357 127.807 59.3227C127.434 58.7944 127.124 58.2222 126.787 57.6721C126.319 56.9102 125.667 56.2992 125.212 55.5373C124.987 55.1603 124.721 55.1169 124.36 55.3784C123.017 56.3523 121.615 57.2419 120.289 58.2429C118.792 59.3732 117.293 60.5026 115.774 61.6034C115.327 61.9272 115.065 61.8172 114.994 61.2531C114.924 60.6945 114.989 60.1291 114.944 59.5238C114.914 59.1737 114.904 58.8669 114.89 58.5029C114.696 58.0564 114.775 57.6511 114.846 57.1952Z" fill="#71C559"/>
<path d="M114.916 59.5405C115.16 59.954 114.978 60.4592 115.033 60.9467C115.063 61.205 115.069 61.5164 115.303 61.6335C115.566 61.7657 115.689 61.4362 115.87 61.3028C117.169 60.3475 118.482 59.4111 119.763 58.4323C121.264 57.2853 122.85 56.2622 124.384 55.1636C124.768 54.8882 124.962 54.8996 125.252 55.3147C126.112 56.5472 127.127 57.6701 127.799 59.0367C127.968 59.3807 128.197 59.7198 128.705 59.7339C128.443 61.24 128.134 62.7457 127.793 64.2836C127.184 64.0633 126.959 63.4986 126.62 63.0325C125.884 62.0193 125.198 60.97 124.424 59.9845C124.196 59.6937 123.938 59.6398 123.639 59.856C123.061 60.2733 122.409 60.5817 121.882 61.0741C121.309 61.6085 120.629 61.9966 119.993 62.444C118.525 63.4768 117.102 64.5704 115.655 65.6321C115.496 65.7491 115.339 65.867 115.089 65.7509C115.005 63.6804 114.956 61.6404 114.916 59.5405Z" fill="#68BB5B"/>
<path d="M108.008 96.8329C108.025 96.8066 108.028 96.7482 108.035 96.7199C108.062 96.6697 108.082 96.6479 108.128 96.5915C108.154 96.5569 108.152 96.5656 108.15 96.5615C108.408 96.344 108.612 96.0623 109.031 96.1066C109.291 96.1341 109.393 95.8276 109.538 95.6508C109.851 95.2697 110.2 95.0311 110.715 95.2002C111.022 95.301 111.204 95.1451 111.342 94.8905C112.216 93.276 113.701 92.5089 115.302 91.7738C116.207 91.3582 117.15 90.8526 117.908 90.1301C118.033 90.0109 118.156 89.8892 118.293 89.7828C118.888 89.319 119.093 89.3479 119.399 90.0208C119.607 90.4777 120.033 90.5945 120.416 90.7576C120.863 90.9481 121.208 91.186 121.304 91.6934C121.347 91.9171 121.493 92.0793 121.668 92.2138C121.877 92.3737 122.07 92.5571 122.181 92.7919C122.742 93.9804 123.675 94.8856 124.494 95.8773C124.911 96.381 125.157 96.9884 125.516 97.5289C126.007 98.2676 126.467 99.022 127.155 99.5997C127.405 99.8097 127.368 100.102 127.385 100.379C127.409 100.781 127.47 101.162 127.942 101.364C128.087 102.722 128.191 104.06 128.295 105.456C127.315 106.128 126.281 106.517 125.054 106.246C124.871 106.005 125.013 105.888 125.163 105.797C125.696 105.471 126.193 105.084 126.783 104.856C127.365 104.631 127.503 104.33 127.076 103.923C126.228 103.115 125.83 102.019 125.156 101.1C124.032 99.5668 122.895 98.0503 121.666 96.6019C121.286 96.1547 121.121 95.5795 120.806 95.087C120.583 94.7395 120.382 94.3888 120.077 94.1112C119.67 93.7418 119.387 93.2912 119.133 92.8068C118.797 92.1649 118.55 92.1875 117.973 92.583C117.01 93.2434 116.152 94.0497 115.031 94.504C114.408 94.7569 113.81 95.2352 113.671 96.0688C113.675 96.2133 113.651 96.3011 113.526 96.3829C113.177 96.4174 112.87 96.4331 112.506 96.4522C112.035 96.3978 111.665 96.5055 111.304 96.788C111.093 96.8697 110.913 96.9226 110.686 96.9811C110.391 96.9658 110.154 96.8884 109.979 97.2014C109.881 97.3755 109.603 97.3758 109.364 97.4565C109.333 97.4894 109.326 97.4808 109.331 97.4826C109.3 97.5043 109.268 97.5293 109.219 97.5816C108.797 97.7331 108.397 97.8624 107.947 97.9915C107.78 97.9238 107.613 97.9592 107.519 97.7748C107.531 97.6632 107.556 97.5916 107.613 97.4986C107.671 97.4454 107.699 97.4158 107.747 97.3632C107.765 97.338 107.768 97.3468 107.764 97.3447C107.831 97.2923 107.836 97.2109 107.874 97.1018C107.893 97.0674 107.895 97.0095 107.902 96.9813C107.94 96.9248 107.967 96.8935 108.008 96.8329Z" fill="#26725D"/>
<path d="M115.045 65.781C115.778 65.5197 116.309 64.986 116.869 64.5509C118.18 63.5323 119.561 62.6189 120.902 61.6468C121.771 61.0164 122.613 60.3484 123.5 59.7384C124.004 59.3923 124.292 59.4995 124.615 59.9534C125.638 61.3889 126.682 62.8084 127.74 64.2749C127.71 64.7329 127.66 65.1501 127.597 65.6273C127.167 65.7501 126.996 66.0758 126.85 66.4095C126.747 66.6439 126.694 66.901 126.462 67.1145C125.918 67.5015 125.528 67.4442 125.3 66.8994C124.921 65.993 124.205 65.3545 123.615 64.6144C123.324 64.2485 123.01 64.1862 122.621 64.5051C121.705 65.2553 120.755 65.9678 119.777 66.6259C118.703 67.3481 117.72 68.1949 116.618 68.8721C116.302 69.0659 116.079 69.3704 115.765 69.567C115.557 69.6979 115.342 69.8144 115.102 69.6847C114.883 69.5663 114.983 69.3368 114.974 69.1538C114.963 68.9385 114.957 68.7211 115 68.4598C115.023 67.5567 115.03 66.6991 115.045 65.781Z" fill="#60B25C"/>
<path d="M127.99 101.329C127.859 101.427 127.796 101.776 127.604 101.472C127.466 101.255 127.218 100.993 127.257 100.798C127.418 99.9817 126.829 99.5828 126.418 99.0807C125.746 98.2616 125.177 97.3766 124.693 96.4349C124.374 95.8144 123.878 95.2888 123.398 94.8461C122.533 94.0471 122.332 92.7764 121.316 92.1282C121.264 92.0952 121.195 92.0286 121.197 91.9799C121.226 91.1951 120.631 90.9993 120.073 90.779C119.617 90.5993 119.255 90.3742 119.159 89.8236C119.095 89.4535 118.854 89.578 118.631 89.7389C118.039 90.1659 117.549 90.7235 116.871 91.0447C116.415 91.2611 116.005 91.5634 115.597 91.8783C115.247 92.1483 114.689 92.2332 114.228 92.4509C112.999 93.0316 112.041 93.8578 111.429 95.0769C111.261 95.4135 111.076 95.5723 110.671 95.3678C109.954 95.0066 109.755 95.7247 109.41 96.0722C109.237 96.2468 109.248 96.5672 108.873 96.2754C108.607 96.0692 108.549 96.6582 108.196 96.5595C108.315 95.9049 108.593 95.2964 108.904 94.6528C109.303 94.6173 109.252 94.2326 109.359 94.0514C109.8 93.3023 110.67 93.2128 111.255 92.6869C112.876 91.2305 114.894 90.3389 116.597 88.9989C117.407 88.3617 118.372 87.9556 119.109 87.2174C119.386 86.9401 119.694 87.0296 119.874 87.3334C120.698 88.7217 121.763 89.9405 122.642 91.2817C123.812 93.0662 125.198 94.6868 126.396 96.4516C126.949 97.2657 127.478 98.0092 127.703 99.0052C127.758 99.0784 127.776 99.1191 127.778 99.1898C127.831 99.4682 127.793 99.7241 127.832 100.026C127.901 100.475 127.949 100.875 127.99 101.329Z" fill="#29755D"/>
<path d="M114.851 57.1089C114.886 57.5373 114.895 57.9322 114.895 58.3864C114.835 58.5159 114.784 58.5863 114.705 58.6768C114.667 57.4393 114.657 56.1815 114.656 54.8645C114.883 55.1333 114.707 55.5054 114.788 55.9055C114.875 56.1803 114.823 56.407 114.819 56.6846C114.812 56.8513 114.819 56.9634 114.851 57.1089Z" fill="#465C3D"/>
<path d="M136.624 29.7026C135.625 29.9633 134.586 29.6177 133.499 29.5944C134.504 29.4079 135.529 29.71 136.624 29.7026Z" fill="#6F9C53"/>
<path d="M87.8835 39.2083C87.7969 38.921 87.8849 38.672 88.088 38.4041C88.4657 38.6434 88.2858 39.0118 88.2232 39.3951C88.1657 39.2815 88.107 39.1705 87.8835 39.2083Z" fill="#7F7E7C"/>
<path d="M121.842 28.6366C121.298 28.8886 120.679 28.7418 120.021 28.6883C120.579 28.6512 121.18 28.6426 121.842 28.6366Z" fill="#4B7238"/>
<path d="M137.951 29.8968C137.658 29.9031 137.328 29.9992 136.992 29.8304C137.291 29.7532 137.61 29.7585 137.951 29.8968Z" fill="#6F9C53"/>
<path d="M114.377 49.3816C114.626 49.6659 114.495 50.0406 114.45 50.4447C114.403 50.1359 114.386 49.7877 114.377 49.3816Z" fill="#7ACF56"/>
<path d="M127.862 100.022C127.658 99.8516 127.769 99.5848 127.756 99.2777C127.944 99.4477 127.831 99.719 127.862 100.022Z" fill="#307B5E"/>
<path d="M114.658 59.7871C114.826 59.96 114.77 60.2034 114.698 60.4815C114.66 60.2921 114.651 60.0669 114.658 59.7871Z" fill="#465C3D"/>
<path d="M137.893 30.6664C137.881 30.588 137.901 30.4868 137.951 30.3603C137.962 30.4379 137.944 30.5408 137.893 30.6664Z" fill="#6F9C53"/>
<path d="M132.195 46.8599C132.151 46.8222 132.146 46.7558 132.135 46.6397C132.123 46.5675 132.116 46.545 132.124 46.4909C132.167 46.4578 132.193 46.4565 132.259 46.4626C132.276 46.5906 132.254 46.7109 132.195 46.8599Z" fill="#6F9C53"/>
<path d="M132.33 46.446C132.273 46.3386 132.263 46.2071 132.393 46.0616C132.412 46.1605 132.392 46.2909 132.33 46.446Z" fill="#6F9C53"/>
<path d="M132.457 45.9863C132.432 45.9213 132.448 45.8281 132.501 45.7041C132.524 45.7683 132.511 45.8632 132.457 45.9863Z" fill="#6F9C53"/>
<path d="M132.579 45.554C132.563 45.5026 132.579 45.4264 132.625 45.3248C132.64 45.3759 132.625 45.4525 132.579 45.554Z" fill="#6F9C53"/>
<path d="M89.1681 33.8278C89.1608 33.8514 89.1533 33.8553 89.1457 33.8593C89.1443 33.8384 89.143 33.8174 89.1416 33.7965C89.1503 33.8004 89.1591 33.8043 89.1681 33.8278Z" fill="#1F1E1A"/>
<path d="M138.034 30.2239C137.998 30.18 137.995 30.1114 137.988 29.9915C138.122 29.9918 138.11 30.0906 138.034 30.2239Z" fill="#6F9C53"/>
<path d="M132.072 47.2638C132.051 47.2052 132.066 47.1192 132.115 47.0052C132.136 47.0636 132.122 47.15 132.072 47.2638Z" fill="#7ACF56"/>
<path d="M88.1842 39.427C88.1826 39.4244 88.1599 39.4834 88.1599 39.4834C88.1599 39.4834 88.1651 39.4531 88.178 39.4428C88.1909 39.4325 88.1858 39.4295 88.1842 39.427Z" fill="#7F7E7C"/>
<path d="M114.654 60.9376C114.683 60.9273 114.703 60.9485 114.715 60.9734C114.72 60.9818 114.705 60.9996 114.68 61.0255C114.655 61.0154 114.648 60.9929 114.654 60.9376Z" fill="#465C3D"/>
<path d="M119.867 106.546C119.735 106.584 119.641 106.591 119.5 106.6C119.376 106.593 119.304 106.606 119.213 106.679C118.587 106.708 117.99 106.712 117.392 106.718C116.462 106.726 115.574 106.623 114.702 106.209C113.296 105.54 111.695 105.476 110.252 104.886C109.414 104.544 108.555 104.254 107.705 103.943C107.263 103.781 107.179 103.592 107.546 103.21C108.051 102.682 108.697 102.528 109.356 102.446C110.487 102.305 111.616 102.168 112.733 101.927C113.987 101.658 115.087 101.136 116.005 100.216C116.348 99.8731 116.621 99.4496 117.118 99.2473C117.322 99.1644 117.525 98.8785 117.346 98.5376C117.116 98.0993 116.928 97.6383 116.715 97.1404C116.794 96.5467 117.138 96.3899 117.641 96.4681C118.029 96.5284 118.437 96.5961 118.703 96.8951C119.373 97.6479 120.114 98.3532 120.562 99.2766C120.857 99.8835 121.297 100.386 121.652 100.942C122.087 101.623 122.653 102.196 123.069 102.872C123.586 103.715 123.357 104.008 122.556 104.593C121.723 105.2 120.796 105.672 119.998 106.404C119.948 106.468 119.926 106.491 119.867 106.546Z" fill="#1C645B"/>
<path d="M119.87 106.483C120.001 105.953 120.457 105.768 120.864 105.558C121.292 105.337 121.693 105.099 122.009 104.729C122.18 104.529 122.395 104.428 122.655 104.341C123.122 104.185 123.356 103.817 123.12 103.32C122.913 102.885 122.801 102.351 122.206 102.227C122.133 102.212 122.031 102.125 122.02 102.059C121.828 100.88 120.724 100.26 120.3 99.1838C119.984 98.38 119.291 97.687 118.654 97.0594C117.979 96.3955 117.229 96.454 116.746 97.0669C116.328 96.7521 115.908 96.49 115.337 96.43C114.776 96.1803 114.211 96.4085 113.648 96.2098C113.366 95.8794 113.424 95.5925 113.7 95.3852C114.295 94.9385 114.662 94.1355 115.581 94.1776C115.693 94.1827 115.834 94.0187 115.928 93.9051C116.56 93.1398 117.581 92.9132 118.253 92.1788C118.577 91.8247 118.991 92.1458 119.138 92.4851C119.484 93.2867 120.065 93.8785 120.657 94.4825C120.95 94.781 121.112 95.2074 121.293 95.5675C122.04 97.0528 123.317 98.1207 124.2 99.4811C124.888 100.541 125.789 101.461 126.292 102.64C126.46 103.035 126.747 103.32 127.042 103.605C127.28 103.837 127.475 104.088 127.482 104.442C127.487 104.672 127.47 104.84 127.172 104.909C126.347 105.102 125.696 105.631 125.02 106.167C123.935 106.107 122.902 106.37 121.868 106.596C121.532 106.669 121.203 106.733 120.805 106.69C120.493 106.505 120.171 106.654 119.87 106.483Z" fill="#206B5D"/>
<path d="M123.51 81.5739C123.291 81.5904 123.07 81.4998 123.103 81.3232C123.261 80.4842 122.486 80.253 122.137 79.747C121.88 79.3746 121.629 78.9976 121.393 78.6114C121.139 78.1953 120.857 78.0937 120.444 78.4163C119.664 79.0245 118.83 79.5681 118.088 80.218C117.384 80.8345 116.578 81.2881 115.796 81.7638C114.521 82.5399 113.427 83.5696 112.083 84.3164C112.3 82.8038 112.825 81.3372 113.146 79.8205C113.181 79.6526 113.234 79.4883 113.315 79.2898C113.497 78.8981 113.754 78.6978 114.121 78.5422C114.883 78.2198 115.416 77.5396 116.11 77.1182C117.803 76.0897 119.224 74.6721 120.987 73.7469C121.814 73.313 121.802 73.2894 122.451 73.9722C122.54 74.0663 122.645 74.1431 122.766 74.2723C122.364 75.1782 122.461 75.989 123.101 76.7106C123.328 76.9655 123.366 77.1181 123.122 77.4099C122.614 78.0187 122.638 78.5467 123.103 79.2835C123.558 80.0039 124.215 80.2972 124.913 80.1905C125.256 80.138 125.597 79.9084 126.012 80.1089C125.624 80.4906 125.104 80.5046 124.675 80.7116C124.249 80.9173 123.686 80.9457 123.51 81.5739Z" fill="#43905E"/>
<path d="M114.985 68.4623C115.021 68.522 115.016 68.6319 115.036 68.7373C115.088 69.0202 114.868 69.4009 115.184 69.5734C115.55 69.7738 115.764 69.3609 115.997 69.1854C117.168 68.3074 118.331 67.426 119.555 66.6189C120.6 65.9299 121.572 65.1275 122.552 64.3453C122.96 64.0201 123.283 63.9401 123.636 64.3954C124.273 65.2183 125.117 65.8794 125.464 66.9305C125.586 67.2998 125.981 67.3385 126.391 67.1589C126.372 67.5909 126.014 67.8372 125.759 68.1378C125.231 68.7609 124.844 69.4753 124.385 70.1424C124.161 70.468 124.281 70.8479 124.254 71.2615C124.159 71.3527 124.066 71.3246 124.042 71.2364C123.829 70.4727 123.147 70.038 122.766 69.3932C122.524 68.9845 122.178 68.9442 121.848 69.2445C120.441 70.5245 118.752 71.4183 117.289 72.6219C116.678 73.1252 115.898 73.3947 115.376 74.0343C115.204 74.2457 114.913 74.2376 114.625 74.079C114.908 72.2118 114.81 70.3531 114.985 68.4623Z" fill="#57A75D"/>
<path d="M114.566 74.0814C115.138 74.1945 115.365 73.7711 115.706 73.4834C116.357 72.9354 117.144 72.5748 117.807 72.0256C119.072 70.9773 120.57 70.2433 121.762 69.0841C122.18 68.6771 122.536 68.7753 122.877 69.25C123.165 69.6496 123.402 70.0906 123.81 70.3928C124.101 70.6076 124.043 70.9762 124.216 71.2896C124.336 71.4908 124.375 71.7139 124.507 71.827C125.23 72.4452 124.778 72.7249 124.23 73.084C123.732 73.4103 123.31 73.8517 122.825 74.2758C122.474 74.3604 122.352 74.131 122.201 73.9118C121.964 73.5677 121.733 73.4949 121.296 73.7448C119.989 74.4927 118.839 75.4557 117.605 76.2965C116.504 77.0461 115.487 77.9013 114.381 78.6322C114.075 78.8343 113.643 78.8421 113.391 79.2361C113.626 77.5164 114.181 75.8408 114.566 74.0814Z" fill="#4D9B5E"/>
<path d="M109.383 97.4909C109.472 97.1971 110.044 97.2941 109.967 96.7562C109.956 96.6804 110.371 96.832 110.611 96.9465C110.288 97.2777 109.877 97.4232 109.383 97.4909Z" fill="#2A6C5A"/>
<path d="M113.594 96.2058C114.145 96.2345 114.713 96.027 115.256 96.3877C114.725 96.4235 114.163 96.422 113.542 96.411C113.516 96.3465 113.549 96.2913 113.594 96.2058Z" fill="#2A6C5A"/>
<path d="M111.321 96.8142C111.507 96.3218 111.891 96.2093 112.417 96.4155C112.126 96.6848 111.72 96.6626 111.321 96.8142Z" fill="#2A6C5A"/>
<path d="M119.831 106.484C120.124 106.514 120.456 106.33 120.733 106.638C120.47 106.715 120.189 106.76 119.875 106.6C119.829 106.577 119.83 106.515 119.831 106.484Z" fill="#235249"/>
<path d="M107.474 97.7583C107.622 97.7988 107.737 97.8629 107.875 97.9592C107.725 98.0771 107.548 98.1863 107.36 98.0638C107.336 98.0485 107.412 97.8796 107.474 97.7583Z" fill="#29755D"/>
<path d="M119.223 106.707C119.209 106.579 119.219 106.435 119.431 106.571C119.389 106.639 119.325 106.674 119.223 106.707Z" fill="#206B5D"/>
<path d="M107.862 97.0926C107.873 97.1451 107.852 97.2228 107.795 97.3215C107.783 97.2677 107.807 97.1927 107.862 97.0926Z" fill="#29755D"/>
<path d="M109.229 97.5951C109.211 97.5617 109.238 97.5287 109.307 97.4949C109.312 97.5182 109.286 97.552 109.229 97.5951Z" fill="#2A6C5A"/>
<path d="M107.736 97.3515C107.758 97.382 107.736 97.4183 107.673 97.4624C107.651 97.4326 107.672 97.395 107.736 97.3515Z" fill="#29755D"/>
<path d="M107.998 96.8239C108.006 96.8448 107.986 96.883 107.937 96.9377C107.914 96.9082 107.934 96.8705 107.998 96.8239Z" fill="#29755D"/>
<path d="M108.127 96.5698C108.148 96.5989 108.128 96.634 108.069 96.6772C108.046 96.6484 108.065 96.6119 108.127 96.5698Z" fill="#29755D"/>
<path d="M132.122 46.4712C132.141 46.4813 132.141 46.5034 132.136 46.5581C132.113 46.5677 132.093 46.5459 132.08 46.5206C132.077 46.5137 132.094 46.4959 132.122 46.4712Z" fill="#7ACF56"/>
<path d="M67.0954 127.019C67.0577 128.026 67.1762 128.991 66.7192 129.872C66.3603 130.564 65.7392 130.869 64.9995 130.921C64.4195 130.961 63.8343 130.92 63.2525 130.943C62.9595 130.955 62.8938 130.846 62.8948 130.57C62.9038 128.166 62.8983 125.762 62.9012 123.358C62.9014 123.203 62.8285 122.977 63.1147 122.988C63.9083 123.017 64.7151 122.868 65.4936 123.059C66.4908 123.305 66.9826 123.998 67.0445 125.14C67.0772 125.744 67.0794 126.349 67.0954 127.019Z" fill="#FEFEFE"/>
<path d="M108.418 132.87C109.123 130.598 109.825 128.379 110.528 126.16C110.65 128.518 110.535 130.85 110.386 133.182C110.338 133.937 110.381 134.698 110.361 135.455C110.345 136.055 110.288 136.655 110.266 137.255C110.258 137.476 110.178 137.556 109.959 137.554C109.074 137.546 108.189 137.545 107.305 137.554C106.982 137.557 106.964 137.443 107.057 137.161C107.522 135.753 107.965 134.337 108.418 132.87Z" fill="#FDFDFD"/>
<path d="M47.8549 128.711C47.8796 127.33 47.8288 126.015 47.9559 124.698C48.0849 123.362 48.89 122.576 50.2795 122.595C51.498 122.611 52.3836 123.507 52.3897 124.782C52.403 127.534 52.3938 130.287 52.3937 133.04C52.3937 135.728 52.4267 138.416 52.3828 141.103C52.3492 143.164 50.9079 143.773 49.2335 143.288C48.4462 143.059 48.1575 142.387 48.002 141.688C47.8777 141.129 47.8625 140.538 47.8607 139.961C47.8493 136.232 47.8549 132.504 47.8549 128.711Z" fill="white"/>
<path d="M34.1168 127.93C34.1168 126.394 34.1276 124.922 34.109 123.451C34.1045 123.092 34.1936 122.952 34.5698 122.977C35.0422 123.008 35.5193 123.006 35.9923 122.98C37.2989 122.907 38.2414 123.541 38.2979 125.034C38.3584 126.629 38.4191 128.233 38.2519 129.827C38.1348 130.943 37.4376 131.55 36.3196 131.573C35.7161 131.585 35.1116 131.56 34.5086 131.581C34.1948 131.593 34.1054 131.485 34.1103 131.176C34.1269 130.116 34.1167 129.056 34.1168 127.93Z" fill="#FCFCFB"/>
<path d="M114.834 56.7035C114.796 56.517 114.787 56.2948 114.785 56.0172C114.971 56.1816 114.909 56.4255 114.834 56.7035Z" fill="#74AE5A"/>
</g>
<defs>
<clipPath id="clip0_30_957">
<rect width="166" height="155" fill="white"/>
</clipPath>
</defs>
</svg>
