<svg width="23" height="26" viewBox="0 0 23 26" fill="none" xmlns="http://www.w3.org/2000/svg">
<path d="M8.30556 0C7.79723 0 7.30972 0.201934 6.95027 0.561379C6.59083 0.920823 6.3889 1.40833 6.3889 1.91667V3.19444C6.3889 3.70278 6.59083 4.19029 6.95027 4.54973C7.30972 4.90918 7.79723 5.11111 8.30556 5.11111H14.6945C15.2028 5.11111 15.6903 4.90918 16.0497 4.54973C16.4092 4.19029 16.6111 3.70278 16.6111 3.19444V1.91667C16.6111 1.40833 16.4092 0.920823 16.0497 0.561379C15.6903 0.201934 15.2028 0 14.6945 0H8.30556Z" fill="white"/>
<path fill-rule="evenodd" clip-rule="evenodd" d="M4.47222 2.6029C2.86478 2.69235 1.85022 2.9479 1.12317 3.67624C-7.61615e-08 4.7994 0 6.60618 0 10.2197V17.8864C0 21.5012 -7.61615e-08 23.308 1.12317 24.4312C2.24506 25.5531 4.05311 25.5531 7.66667 25.5531H15.3333C18.9469 25.5531 20.7549 25.5531 21.8768 24.4312C23 23.3067 23 21.5012 23 17.8864V10.2197C23 6.60618 23 4.7994 21.8768 3.67624C21.1498 2.9479 20.1352 2.69235 18.5278 2.6029V3.19452C18.5278 4.21118 18.1239 5.1862 17.405 5.90509C16.6861 6.62398 15.7111 7.02785 14.6944 7.02785H8.30556C7.28889 7.02785 6.31387 6.62398 5.59498 5.90509C4.87609 5.1862 4.47222 4.21118 4.47222 3.19452V2.6029ZM5.11111 9.90285C4.85695 9.90285 4.61319 10.0038 4.43347 10.1835C4.25374 10.3633 4.15278 10.607 4.15278 10.8612C4.15278 11.1153 4.25374 11.3591 4.43347 11.5388C4.61319 11.7185 4.85695 11.8195 5.11111 11.8195H5.75C6.00417 11.8195 6.24792 11.7185 6.42764 11.5388C6.60737 11.3591 6.70833 11.1153 6.70833 10.8612C6.70833 10.607 6.60737 10.3633 6.42764 10.1835C6.24792 10.0038 6.00417 9.90285 5.75 9.90285H5.11111ZM9.58333 9.90285C9.32917 9.90285 9.08541 10.0038 8.90569 10.1835C8.72597 10.3633 8.625 10.607 8.625 10.8612C8.625 11.1153 8.72597 11.3591 8.90569 11.5388C9.08541 11.7185 9.32917 11.8195 9.58333 11.8195H17.8889C18.1431 11.8195 18.3868 11.7185 18.5665 11.5388C18.7463 11.3591 18.8472 11.1153 18.8472 10.8612C18.8472 10.607 18.7463 10.3633 18.5665 10.1835C18.3868 10.0038 18.1431 9.90285 17.8889 9.90285H9.58333ZM5.11111 14.3751C4.85695 14.3751 4.61319 14.476 4.43347 14.6558C4.25374 14.8355 4.15278 15.0792 4.15278 15.3334C4.15278 15.5876 4.25374 15.8313 4.43347 16.011C4.61319 16.1908 4.85695 16.2917 5.11111 16.2917H5.75C6.00417 16.2917 6.24792 16.1908 6.42764 16.011C6.60737 15.8313 6.70833 15.5876 6.70833 15.3334C6.70833 15.0792 6.60737 14.8355 6.42764 14.6558C6.24792 14.476 6.00417 14.3751 5.75 14.3751H5.11111ZM9.58333 14.3751C9.32917 14.3751 9.08541 14.476 8.90569 14.6558C8.72597 14.8355 8.625 15.0792 8.625 15.3334C8.625 15.5876 8.72597 15.8313 8.90569 16.011C9.08541 16.1908 9.32917 16.2917 9.58333 16.2917H17.8889C18.1431 16.2917 18.3868 16.1908 18.5665 16.011C18.7463 15.8313 18.8472 15.5876 18.8472 15.3334C18.8472 15.0792 18.7463 14.8355 18.5665 14.6558C18.3868 14.476 18.1431 14.3751 17.8889 14.3751H9.58333ZM5.11111 18.8473C4.85695 18.8473 4.61319 18.9483 4.43347 19.128C4.25374 19.3077 4.15278 19.5515 4.15278 19.8056C4.15278 20.0598 4.25374 20.3035 4.43347 20.4833C4.61319 20.663 4.85695 20.764 5.11111 20.764H5.75C6.00417 20.764 6.24792 20.663 6.42764 20.4833C6.60737 20.3035 6.70833 20.0598 6.70833 19.8056C6.70833 19.5515 6.60737 19.3077 6.42764 19.128C6.24792 18.9483 6.00417 18.8473 5.75 18.8473H5.11111ZM9.58333 18.8473C9.32917 18.8473 9.08541 18.9483 8.90569 19.128C8.72597 19.3077 8.625 19.5515 8.625 19.8056C8.625 20.0598 8.72597 20.3035 8.90569 20.4833C9.08541 20.663 9.32917 20.764 9.58333 20.764H17.8889C18.1431 20.764 18.3868 20.663 18.5665 20.4833C18.7463 20.3035 18.8472 20.0598 18.8472 19.8056C18.8472 19.5515 18.7463 19.3077 18.5665 19.128C18.3868 18.9483 18.1431 18.8473 17.8889 18.8473H9.58333Z" fill="white"/>
</svg>
