<svg width="29" height="32" viewBox="0 0 29 32" fill="none" xmlns="http://www.w3.org/2000/svg">
<g clip-path="url(#clip0_30_946)">
<path d="M4.02286 2C1.804 2 0 3.79375 0 6V26C0 28.2062 1.804 30 4.02286 30H24.1371C26.356 30 28.16 28.2062 28.16 26V6C28.16 3.79375 26.356 2 24.1371 2H4.02286ZM22.6977 7.25L16.1731 14.6625L23.848 24.75H17.8389L13.1371 18.6313L7.75029 24.75H4.76457L11.7417 16.8188L4.38114 7.25H10.5411L14.7966 12.8438L19.712 7.25H22.6977ZM20.3217 22.975L9.64229 8.93125H7.86343L18.6623 22.975H20.3154H20.3217Z" fill="#444444"/>
</g>
<defs>
<clipPath id="clip0_30_946">
<rect width="28.16" height="32" fill="white"/>
</clipPath>
</defs>
</svg>
