<svg width="23" height="23" viewBox="0 0 23 23" fill="none" xmlns="http://www.w3.org/2000/svg">
<path fill-rule="evenodd" clip-rule="evenodd" d="M6.38887 5.1111C6.38887 3.75555 6.92736 2.45552 7.88588 1.49701C8.8444 0.538489 10.1444 0 11.5 0C12.8555 0 14.1556 0.538489 15.1141 1.49701C16.0726 2.45552 16.6111 3.75555 16.6111 5.1111C16.6111 6.46665 16.0726 7.76668 15.1141 8.72519C14.1556 9.68371 12.8555 10.2222 11.5 10.2222C10.1444 10.2222 8.8444 9.68371 7.88588 8.72519C6.92736 7.76668 6.38888 6.46665 6.38887 5.1111ZM6.38887 12.7777C4.69444 12.7778 3.0694 13.4509 1.87126 14.649C0.673112 15.8472 0 17.4722 0 19.1666C0 20.1833 0.403867 21.1583 1.12276 21.8772C1.84164 22.5961 2.81666 22.9999 3.83333 22.9999H19.1666C20.1833 22.9999 21.1583 22.5961 21.8772 21.8772C22.5961 21.1583 22.9999 20.1833 22.9999 19.1666C22.9999 17.4722 22.3268 15.8472 21.1287 14.649C19.9305 13.4509 18.3055 12.7778 16.6111 12.7777H6.38887Z" fill="white"/>
</svg>
