<svg width="27" height="23" viewBox="0 0 27 23" fill="none" xmlns="http://www.w3.org/2000/svg">
<path d="M15.3333 0C12.2833 0 9.35827 1.2116 7.2016 3.36827C5.04494 5.52494 3.83333 8.45001 3.83333 11.5H0L4.97055 16.4705L5.06 16.6494L10.2222 11.5H6.38889C6.38889 6.555 10.3883 2.55555 15.3333 2.55555C20.2783 2.55555 24.2778 6.555 24.2778 11.5C24.2778 16.445 20.2783 20.4444 15.3333 20.4444C12.8672 20.4444 10.6311 19.435 9.02111 17.8122L7.20666 19.6267C8.27158 20.6975 9.53795 21.5468 10.9327 22.1258C12.3275 22.7048 13.8231 23.0019 15.3333 23C18.3833 23 21.3084 21.7884 23.4651 19.6317C25.6217 17.475 26.8333 14.55 26.8333 11.5C26.8333 8.45001 25.6217 5.52494 23.4651 3.36827C21.3084 1.2116 18.3833 4.54484e-08 15.3333 0ZM14.0556 6.38889V12.7778L19.4861 15.9978L20.47 14.3622L15.9722 11.6917V6.38889H14.0556Z" fill="#4E87F8"/>
</svg>
