<svg width="16" height="16" viewBox="0 0 16 16" fill="none" xmlns="http://www.w3.org/2000/svg">
<path d="M0.799994 8C0.799994 8.94552 0.986227 9.88178 1.34806 10.7553C1.7099 11.6289 2.24024 12.4226 2.90883 13.0912C3.57741 13.7598 4.37113 14.2901 5.24468 14.6519C6.11822 15.0138 7.05448 15.2 8 15.2C8.94552 15.2 9.88178 15.0138 10.7553 14.6519C11.6289 14.2901 12.4226 13.7598 13.0912 13.0912C13.7598 12.4226 14.2901 11.6289 14.6519 10.7553C15.0138 9.88178 15.2 8.94552 15.2 8C15.2 6.09044 14.4414 4.25909 13.0912 2.90883C11.7409 1.55856 9.90956 0.799994 8 0.799994C6.09044 0.799994 4.25909 1.55856 2.90883 2.90883C1.55856 4.25909 0.799994 6.09044 0.799994 8Z" stroke="#4E87F8" stroke-width="1.55556" stroke-linecap="round" stroke-linejoin="round"/>
<path d="M8 3.99997V7.99997L10.4 10.4" stroke="#4E87F8" stroke-width="1.55556" stroke-linecap="round" stroke-linejoin="round"/>
</svg>
