<svg width="28" height="28" viewBox="0 0 28 28" fill="none" xmlns="http://www.w3.org/2000/svg">
<path d="M4.00005 12.0001C5.6569 12.0001 7.00004 10.6569 7.00004 9.00009C7.00004 7.34324 5.6569 6.0001 4.00005 6.0001C2.3432 6.0001 1.00006 7.34324 1.00006 9.00009C1.00006 10.6569 2.3432 12.0001 4.00005 12.0001Z" stroke="#A5A5A5" stroke-width="1.95618" stroke-linecap="round" stroke-linejoin="round"/>
<path d="M3.99998 12V27M3.99998 1.00006V6.00004" stroke="#A5A5A5" stroke-width="1.95618" stroke-linecap="round" stroke-linejoin="round"/>
<path d="M24 12.0001C25.6568 12.0001 26.9999 10.6569 26.9999 9.00009C26.9999 7.34324 25.6568 6.0001 24 6.0001C22.3431 6.0001 21 7.34324 21 9.00009C21 10.6569 22.3431 12.0001 24 12.0001Z" stroke="#A5A5A5" stroke-width="1.95618" stroke-linecap="round" stroke-linejoin="round"/>
<path d="M24 6.00004V1.00006M24 27V12" stroke="#A5A5A5" stroke-width="1.95618" stroke-linecap="round" stroke-linejoin="round"/>
<path d="M13.9999 17.0001C15.6567 17.0001 16.9999 15.657 16.9999 14.0001C16.9999 12.3433 15.6567 11.0001 13.9999 11.0001C12.343 11.0001 10.9999 12.3433 10.9999 14.0001C10.9999 15.657 12.343 17.0001 13.9999 17.0001Z" stroke="#A5A5A5" stroke-width="1.95618" stroke-linecap="round" stroke-linejoin="round"/>
<path d="M14.0001 1.00006V11M14.0001 17V27" stroke="#A5A5A5" stroke-width="1.95618" stroke-linecap="round" stroke-linejoin="round"/>
</svg>
