<svg width="24" height="24" viewBox="0 0 24 24" fill="none" xmlns="http://www.w3.org/2000/svg">
<path d="M10.1664 1.74229C10.3973 1.48447 10.6799 1.27824 10.9958 1.13704C11.3118 0.995848 11.6539 0.922869 12 0.922869C12.3461 0.922869 12.6882 0.995848 13.0042 1.13704C13.3201 1.27824 13.6027 1.48447 13.8336 1.74229L14.695 2.70461C14.9412 2.97965 15.2461 3.19578 15.5871 3.33701C15.9282 3.47824 16.2966 3.54095 16.6652 3.5205L17.9573 3.44913C18.3029 3.43007 18.6487 3.48413 18.972 3.60778C19.2953 3.73142 19.5888 3.92186 19.8335 4.16667C20.0782 4.41148 20.2685 4.70515 20.392 5.02851C20.5155 5.35186 20.5694 5.69763 20.5502 6.04322L20.4788 7.33412C20.4585 7.70248 20.5213 8.07068 20.6626 8.41149C20.8038 8.75231 21.0198 9.05701 21.2947 9.30307L22.257 10.1645C22.515 10.3953 22.7215 10.678 22.8628 10.9941C23.0041 11.3102 23.0771 11.6525 23.0771 11.9987C23.0771 12.3449 23.0041 12.6872 22.8628 13.0033C22.7215 13.3194 22.515 13.602 22.257 13.8329L21.2947 14.6943C21.0197 14.9405 20.8035 15.2454 20.6623 15.5865C20.5211 15.9275 20.4584 16.2959 20.4788 16.6645L20.5502 17.9566C20.5692 18.3022 20.5152 18.648 20.3915 18.9713C20.2679 19.2946 20.0774 19.5881 19.8326 19.8328C19.5878 20.0775 19.2942 20.2678 18.9708 20.3913C18.6474 20.5148 18.3017 20.5687 17.9561 20.5495L16.6652 20.4781C16.2968 20.4579 15.9286 20.5207 15.5878 20.6619C15.247 20.8031 14.9423 21.0191 14.6962 21.294L13.8348 22.2563C13.604 22.5144 13.3213 22.7208 13.0052 22.8621C12.6892 23.0034 12.3468 23.0764 12.0006 23.0764C11.6544 23.0764 11.3121 23.0034 10.996 22.8621C10.68 22.7208 10.3973 22.5144 10.1664 22.2563L9.30499 21.294C9.0588 21.019 8.75389 20.8028 8.41285 20.6616C8.07181 20.5204 7.70337 20.4577 7.33481 20.4781L6.04268 20.5495C5.69707 20.5686 5.35133 20.5145 5.02804 20.3908C4.70474 20.2672 4.41117 20.0768 4.16647 19.832C3.92178 19.5871 3.73147 19.2935 3.60798 18.9701C3.48449 18.6468 3.4306 18.301 3.44981 17.9554L3.52119 16.6645C3.54145 16.2961 3.47865 15.9279 3.33743 15.5871C3.1962 15.2463 2.98017 14.9416 2.7053 14.6956L1.74298 13.8341C1.48496 13.6033 1.27855 13.3206 1.13723 13.0045C0.995914 12.6885 0.922869 12.3461 0.922869 11.9999C0.922869 11.6537 0.995914 11.3114 1.13723 10.9953C1.27855 10.6793 1.48496 10.3966 1.74298 10.1657L2.7053 9.30431C2.98034 9.05811 3.19647 8.7532 3.3377 8.41216C3.47893 8.07112 3.54164 7.70268 3.52119 7.33412L3.44981 6.04199C3.43094 5.69649 3.48513 5.35088 3.60886 5.02774C3.73258 4.70459 3.92305 4.41116 4.16784 4.16661C4.41263 3.92205 4.70624 3.73185 5.0295 3.60844C5.35277 3.48502 5.69842 3.43116 6.04391 3.45036L7.33481 3.52173C7.70316 3.542 8.07137 3.47919 8.41218 3.33797C8.75299 3.19675 9.0577 2.98071 9.30376 2.70585L10.1652 1.74352L10.1664 1.74229Z" stroke="#354788" stroke-width="1.83293"/>
<path d="M8.92322 8.92254H8.93552V8.93485H8.92322V8.92254ZM15.0762 15.0755H15.0885V15.0878H15.0762V15.0755Z" stroke="#354788" stroke-width="2.74939" stroke-linejoin="round"/>
<path d="M15.6915 8.3073L8.30791 15.6909" stroke="#354788" stroke-width="1.83293" stroke-linecap="round" stroke-linejoin="round"/>
</svg>
