<svg width="41" height="27" viewBox="0 0 41 27" fill="none" xmlns="http://www.w3.org/2000/svg">
<path d="M41 0.706897C41 0.894377 40.9255 1.07418 40.793 1.20675C40.6604 1.33932 40.4806 1.41379 40.2931 1.41379H31.1034V9.18966C31.1034 9.37714 31.029 9.55694 30.8964 9.68951C30.7638 9.82208 30.584 9.89655 30.3966 9.89655H21.2069V17.6724C21.2069 17.8599 21.1324 18.0397 20.9999 18.1723C20.8673 18.3048 20.6875 18.3793 20.5 18.3793H11.3103V26.1552C11.3103 26.3427 11.2359 26.5225 11.1033 26.655C10.9707 26.7876 10.7909 26.8621 10.6034 26.8621H0.706897C0.519416 26.8621 0.339614 26.7876 0.207045 26.655C0.0744764 26.5225 0 26.3427 0 26.1552C0 25.9677 0.0744764 25.7879 0.207045 25.6553C0.339614 25.5228 0.519416 25.4483 0.706897 25.4483H9.89655V17.6724C9.89655 17.4849 9.97103 17.3051 10.1036 17.1726C10.2362 17.04 10.416 16.9655 10.6034 16.9655H19.7931V9.18966C19.7931 9.00217 19.8676 8.82237 20.0001 8.6898C20.1327 8.55723 20.3125 8.48276 20.5 8.48276H29.6897V0.706897C29.6897 0.519416 29.7641 0.339614 29.8967 0.207045C30.0293 0.0744765 30.2091 0 30.3966 0H40.2931C40.4806 0 40.6604 0.0744765 40.793 0.207045C40.9255 0.339614 41 0.519416 41 0.706897Z" fill="#A7CC8A"/>
</svg>
