<svg width="13" height="13" viewBox="0 0 13 13" fill="none" xmlns="http://www.w3.org/2000/svg">
<path d="M10.4147 12.9999C9.84825 12.9999 9.05257 12.795 7.86108 12.1293C6.4122 11.3168 5.29152 10.5667 3.85048 9.12944C2.46109 7.74092 1.78496 6.84193 0.838678 5.11999C-0.230352 3.17577 -0.048118 2.15665 0.15559 1.72109C0.398182 1.2005 0.756267 0.889139 1.21911 0.580095C1.482 0.407853 1.7602 0.260203 2.05019 0.139018C2.07921 0.12654 2.10619 0.114643 2.13028 0.103906C2.27392 0.0391955 2.49156 -0.0585958 2.76723 0.0458697C2.9512 0.114933 3.11545 0.256252 3.37255 0.510161C3.89981 1.03017 4.62033 2.18828 4.88614 2.75704C5.0646 3.14037 5.1827 3.39341 5.18299 3.67721C5.18299 4.00947 5.01585 4.2657 4.81301 4.54224C4.775 4.59418 4.73727 4.6438 4.70071 4.69197C4.47988 4.98216 4.43142 5.06602 4.46334 5.21575C4.52805 5.51667 5.01063 6.41246 5.80369 7.20379C6.59676 7.99512 7.46673 8.44722 7.76881 8.51164C7.92492 8.54501 8.01053 8.49452 8.31 8.26586C8.35294 8.23307 8.39705 8.19911 8.44319 8.16516C8.75252 7.93505 8.99686 7.77226 9.32128 7.77226H9.32302C9.60537 7.77226 9.84709 7.89471 10.2475 8.09668C10.7699 8.36016 11.9628 9.0714 12.486 9.59924C12.7405 9.85576 12.8824 10.0194 12.9517 10.2031C13.0562 10.4797 12.9578 10.6964 12.8937 10.8415C12.883 10.8656 12.8711 10.892 12.8586 10.9213C12.7365 11.2108 12.5879 11.4884 12.4149 11.7507C12.1064 12.212 11.7939 12.5693 11.2722 12.8121C11.0043 12.9389 10.711 13.0031 10.4147 12.9999Z" fill="black"/>
</svg>
