<svg width="23" height="26" viewBox="0 0 23 26" fill="none" xmlns="http://www.w3.org/2000/svg">
<path d="M2.44058e-06 22.722V9.52857C2.44058e-06 9.06436 0.102065 8.62458 0.30619 8.20923C0.510314 7.79388 0.791586 7.45183 1.15 7.18307L9.775 0.586374C10.2781 0.195458 10.8531 0 11.5 0C12.1469 0 12.7219 0.195458 13.225 0.586374L21.85 7.18307C22.2094 7.45183 22.4911 7.79388 22.6952 8.20923C22.8994 8.62458 23.0009 9.06436 23 9.52857V22.722C23 23.5282 22.7182 24.2187 22.1547 24.7933C21.5912 25.368 20.9147 25.6548 20.125 25.6538H15.8125C15.4052 25.6538 15.0636 25.5131 14.7876 25.2316C14.5116 24.9502 14.374 24.6023 14.375 24.1879V16.8582C14.375 16.4429 14.237 16.0945 13.961 15.813C13.685 15.5316 13.3438 15.3913 12.9375 15.3923H10.0625C9.65521 15.3923 9.31356 15.533 9.03756 15.8145C8.76156 16.096 8.62404 16.4439 8.625 16.8582V24.1879C8.625 24.6033 8.487 24.9517 8.211 25.2331C7.935 25.5146 7.59383 25.6548 7.1875 25.6538H2.875C2.08438 25.6538 1.40731 25.3665 0.843814 24.7919C0.280315 24.2172 -0.000955892 23.5273 2.44058e-06 22.722Z" fill="white"/>
</svg>
