<svg width="28" height="28" viewBox="0 0 28 28" fill="none" xmlns="http://www.w3.org/2000/svg">
<path d="M14 8.61539L19.1208 12.3362M14 8.61539L8.87924 12.3362M14 8.61539V4.57694M19.1208 12.3362L17.1648 18.3561H10.8365M19.1208 12.3362L22.75 10.6346M8.87924 12.3362L10.8365 18.3561M8.87924 12.3362L5.25001 10.6346M14 4.57694L9.45539 1.32463M14 4.57694L18.5446 1.32463M22.75 10.6346L27.3942 15.3462M22.75 10.6346L24.0961 5.09521M10.8365 18.3561L8.61539 21.4038M17.1661 18.3561L19.3846 21.4038M19.3846 21.4038L25.6604 20.7308M19.3846 21.4038L16.0192 27.3108M8.61539 21.4038L2.33963 20.7308M8.61539 21.4038L11.9808 27.3108M5.25001 10.6346L0.605789 15.3462M5.25001 10.6346L3.90386 5.09521M27.4615 14C27.4615 21.4348 21.4348 27.4615 14 27.4615C6.5652 27.4615 0.538481 21.4348 0.538481 14C0.538481 6.5652 6.5652 0.538481 14 0.538481C21.4348 0.538481 27.4615 6.5652 27.4615 14Z" stroke="black" stroke-width="1.04" stroke-linecap="round" stroke-linejoin="round"/>
</svg>
