<svg width="31" height="30" viewBox="0 0 31 30" fill="none" xmlns="http://www.w3.org/2000/svg">
<path d="M15.3413 29.8605C23.5871 29.8605 30.2716 23.176 30.2716 14.9303C30.2716 6.68451 23.5871 0 15.3413 0C7.09558 0 0.411079 6.68451 0.411079 14.9303C0.411079 23.176 7.09558 29.8605 15.3413 29.8605Z" fill="black"/>
<path d="M17.8014 0.403524C17.8014 0.403524 4.37416 14.4489 17.8014 29.7886" stroke="white" stroke-width="0.640578" stroke-miterlimit="10"/>
<path d="M11.4228 0.664138C11.4228 0.664138 -1.06275 11.0547 9.59931 28.9143" stroke="white" stroke-width="0.640578" stroke-miterlimit="10"/>
<path d="M0.265417 16.9132C0.265417 16.9132 8.85396 4.2344 30.172 15.5038" stroke="white" stroke-width="0.640578" stroke-miterlimit="10"/>
<path d="M2.1764 22.1447C2.1764 22.1447 11.9658 11.3216 29.1245 21.1034" stroke="white" stroke-width="0.640578" stroke-miterlimit="10"/>
</svg>
