<svg width="23" height="23" viewBox="0 0 23 23" fill="none" xmlns="http://www.w3.org/2000/svg">
<path d="M16.675 10.35C18.3524 10.35 19.9612 11.0164 21.1474 12.2025C22.3336 13.3887 22.9999 14.9975 22.9999 16.675C22.9999 18.3524 22.3336 19.9612 21.1474 21.1474C19.9612 22.3336 18.3524 22.9999 16.675 22.9999C14.9975 22.9999 13.3887 22.3336 12.2025 21.1474C11.0164 19.9612 10.35 18.3524 10.35 16.675C10.35 14.9975 11.0164 13.3887 12.2025 12.2025C13.3887 11.0164 14.9975 10.35 16.675 10.35ZM13.8276 13.8276C13.7198 13.9354 13.6592 14.0816 13.6592 14.2341C13.6592 14.3866 13.7198 14.5328 13.8276 14.6406L15.8619 16.6761L13.8299 18.707C13.7764 18.7604 13.734 18.8238 13.705 18.8936C13.6761 18.9633 13.6611 19.0381 13.6611 19.1137C13.661 19.1892 13.6758 19.2641 13.7047 19.3339C13.7336 19.4037 13.7759 19.4672 13.8293 19.5206C13.8827 19.5741 13.9461 19.6165 14.0158 19.6455C14.0856 19.6744 14.1604 19.6894 14.236 19.6894C14.3115 19.6895 14.3864 19.6746 14.4562 19.6458C14.526 19.6169 14.5895 19.5746 14.6429 19.5212L16.675 17.4892L18.7105 19.5235C18.7635 19.5784 18.8269 19.6222 18.8971 19.6524C18.9672 19.6825 19.0427 19.6984 19.119 19.699C19.1954 19.6997 19.2711 19.6851 19.3418 19.6562C19.4124 19.6273 19.4766 19.5846 19.5306 19.5306C19.5846 19.4766 19.6273 19.4124 19.6562 19.3418C19.6851 19.2711 19.6997 19.1954 19.699 19.119C19.6984 19.0427 19.6825 18.9672 19.6524 18.8971C19.6222 18.8269 19.5784 18.7635 19.5235 18.7105L17.4892 16.675L19.5258 14.6395C19.6305 14.531 19.6885 14.3858 19.6872 14.235C19.6859 14.0842 19.6254 13.94 19.5188 13.8334C19.4122 13.7268 19.268 13.6663 19.1172 13.665C18.9664 13.6637 18.8212 13.7217 18.7128 13.8264L16.6761 15.8619L14.6406 13.8264C14.5328 13.7186 14.3866 13.6581 14.2341 13.6581C14.0816 13.6581 13.9354 13.7186 13.8276 13.8264V13.8276ZM20.6999 6.32498L20.7011 10.3764C19.2658 9.45743 17.5595 9.05651 15.8651 9.24012C14.1707 9.42374 12.59 10.1809 11.3848 11.386C10.1797 12.5911 9.42258 14.1719 9.23897 15.8663C9.05536 17.5607 9.45628 19.2669 10.3753 20.7023L3.73749 20.6999C2.74625 20.6999 1.7956 20.3062 1.09469 19.6053C0.39377 18.9043 0 17.9537 0 16.9625V6.32498H20.6999ZM16.9625 0C17.9537 0 18.9043 0.39377 19.6053 1.09469C20.3062 1.7956 20.6999 2.74625 20.6999 3.73749V4.59999H0V3.73749C0 2.74625 0.39377 1.7956 1.09469 1.09469C1.7956 0.39377 2.74625 0 3.73749 0H16.9625Z" fill="#CD8484"/>
</svg>
