<svg width="14" height="14" viewBox="0 0 14 14" fill="none" xmlns="http://www.w3.org/2000/svg">
<g clip-path="url(#clip0_30_1664)">
<path d="M9.62507 1.75C8.61007 1.75 7.6359 2.2225 7.00007 2.96917C6.36423 2.2225 5.39007 1.75 4.37507 1.75C2.5784 1.75 1.16673 3.16167 1.16673 4.95834C1.16673 7.16334 3.15007 8.96001 6.15423 11.69L7.00007 12.4542L7.8459 11.6842C10.8501 8.96001 12.8334 7.16334 12.8334 4.95834C12.8334 3.16167 11.4217 1.75 9.62507 1.75ZM7.0584 10.8208L7.00007 10.8792L6.94173 10.8208C4.16507 8.30667 2.3334 6.64417 2.3334 4.95834C2.3334 3.79167 3.2084 2.91667 4.37507 2.91667C5.2734 2.91667 6.1484 3.49417 6.45757 4.29334H7.5484C7.85174 3.49417 8.72674 2.91667 9.62507 2.91667C10.7917 2.91667 11.6667 3.79167 11.6667 4.95834C11.6667 6.64417 9.83507 8.30667 7.0584 10.8208Z" fill="#A8A6AC"/>
</g>
<defs>
<clipPath id="clip0_30_1664">
<rect width="13.4026" height="13.4026" fill="white" transform="scale(1.04457)"/>
</clipPath>
</defs>
</svg>
