<svg width="17" height="17" viewBox="0 0 17 17" fill="none" xmlns="http://www.w3.org/2000/svg">
<g clip-path="url(#clip0_30_1375)">
<path d="M9.16007 4.20486C9.07507 4.13978 8.97679 4.09196 8.86257 4.0654C8.74968 4.04017 8.63014 4.02556 8.50132 4.02556C8.37249 4.02556 8.25163 4.03884 8.13741 4.0654C8.02186 4.09064 7.92358 4.13845 7.83725 4.20486C7.75225 4.26993 7.68585 4.35626 7.63671 4.46384C7.58889 4.57142 7.56366 4.70689 7.56366 4.86759C7.56366 5.02564 7.58889 5.15845 7.63671 5.26868C7.68585 5.37626 7.75225 5.46525 7.83725 5.53032C7.92225 5.5954 8.02186 5.64321 8.13741 5.67111C8.25163 5.699 8.37249 5.71361 8.50132 5.71361C8.62882 5.71361 8.74968 5.699 8.86257 5.67111C8.97679 5.64321 9.07507 5.5954 9.16007 5.53032C9.24507 5.46525 9.3128 5.37626 9.36327 5.26868C9.41374 5.15845 9.43897 5.02564 9.43897 4.86759C9.43897 4.70556 9.41374 4.57009 9.36327 4.46384C9.3128 4.35626 9.24507 4.26993 9.16007 4.20486ZM7.63936 7.36114C7.63936 6.88547 8.02498 6.49986 8.50065 6.49986C8.97633 6.49986 9.36194 6.88547 9.36194 7.36114V11.9485C9.36194 12.4242 8.97633 12.8098 8.50065 12.8098C8.02498 12.8098 7.63936 12.4242 7.63936 11.9485V7.36114Z" fill="#4E87F8"/>
<path d="M8.49999 0.0544586C3.84226 0.0544586 0.0544434 3.84227 0.0544434 8.5C0.0544434 13.1564 3.84226 16.9455 8.49866 16.9455C13.1551 16.9455 16.9442 13.1577 16.9442 8.5C16.9455 3.84227 13.1564 0.0544586 8.49999 0.0544586ZM8.49999 15.7263C4.51562 15.7263 1.27499 12.4844 1.27499 8.5C1.27499 4.51563 4.51562 1.27368 8.49999 1.27368C12.4844 1.27368 15.7263 4.51563 15.7263 8.50133C15.725 12.4844 12.483 15.7263 8.49999 15.7263Z" fill="#4E87F8"/>
</g>
<defs>
<clipPath id="clip0_30_1375">
<rect width="17" height="17" fill="white"/>
</clipPath>
</defs>
</svg>
