<svg width="20" height="24" viewBox="0 0 20 24" fill="none" xmlns="http://www.w3.org/2000/svg">
<path d="M17.9372 0C18.5247 0 19.0152 0.231001 19.4086 0.693001C19.8029 1.156 20 1.7325 20 2.4225V21.5775C20 22.2675 19.8029 22.8435 19.4086 23.3055C19.0152 23.7685 18.5247 24 17.9372 24H10.396C10.2137 24 10.0617 23.9285 9.93997 23.7855C9.8182 23.6415 9.75731 23.463 9.75731 23.25C9.75731 23.037 9.8182 22.8585 9.93997 22.7145C10.0617 22.5715 10.2137 22.5 10.396 22.5H17.9372C18.133 22.5 18.3131 22.404 18.4775 22.212C18.641 22.019 18.7227 21.8075 18.7227 21.5775V2.4225C18.7227 2.1925 18.641 1.981 18.4775 1.788C18.3131 1.596 18.133 1.5 17.9372 1.5H10.396C10.2137 1.5 10.0617 1.4285 9.93997 1.2855C9.8182 1.1415 9.75731 0.962999 9.75731 0.75C9.75731 0.537001 9.8182 0.3585 9.93997 0.2145C10.0617 0.0715008 10.2137 0 10.396 0H17.9372ZM2.04113 11.25H12.7296C12.911 11.25 13.0625 11.3215 13.1843 11.4645C13.3069 11.6085 13.3682 11.787 13.3682 12C13.3682 12.213 13.3069 12.3915 13.1843 12.5355C13.0625 12.6785 12.911 12.75 12.7296 12.75H2.04113L4.55997 15.7065C4.67919 15.8465 4.74305 16.016 4.75157 16.215C4.76008 16.413 4.69622 16.5945 4.55997 16.7595C4.42373 16.9245 4.273 17.0085 4.10781 17.0115C3.94176 17.0145 3.78848 16.9335 3.64798 16.7685L0.310385 12.8475C0.103462 12.6055 0 12.323 0 12C0 11.677 0.103462 11.3945 0.310385 11.1525L3.64798 7.2315C3.7723 7.0855 3.92004 7.009 4.0912 7.002C4.26236 6.996 4.41862 7.0755 4.55997 7.2405C4.69622 7.4055 4.76264 7.584 4.75923 7.776C4.75667 7.967 4.6877 8.142 4.55231 8.301L2.04113 11.25Z" fill="#F8F8F8"/>
</svg>
