<svg width="14" height="17" viewBox="0 0 14 17" fill="none" xmlns="http://www.w3.org/2000/svg">
<path d="M6.80003 8.5C7.26753 8.5 7.66774 8.33354 8.00066 8.00063C8.33357 7.66771 8.50003 7.2675 8.50003 6.8C8.50003 6.3325 8.33357 5.93229 8.00066 5.59938C7.66774 5.26646 7.26753 5.1 6.80003 5.1C6.33252 5.1 5.93231 5.26646 5.5994 5.59938C5.26648 5.93229 5.10002 6.3325 5.10002 6.8C5.10002 7.2675 5.26648 7.66771 5.5994 8.00063C5.93231 8.33354 6.33252 8.5 6.80003 8.5ZM6.80003 14.7475C8.52837 13.1608 9.81045 11.7194 10.6463 10.4231C11.4821 9.12687 11.9 7.97583 11.9 6.97C11.9 5.42583 11.4078 4.16146 10.4232 3.17688C9.43858 2.19229 8.23086 1.7 6.80003 1.7C5.36919 1.7 4.16147 2.19229 3.17689 3.17688C2.1923 4.16146 1.70001 5.42583 1.70001 6.97C1.70001 7.97583 2.11792 9.12687 2.95376 10.4231C3.7896 11.7194 5.07169 13.1608 6.80003 14.7475ZM6.80003 17C4.51918 15.0592 2.81564 13.2565 1.68938 11.5919C0.563127 9.92729 0 8.38667 0 6.97C0 4.845 0.683544 3.15208 2.05063 1.89125C3.41772 0.630417 5.00085 0 6.80003 0C8.5992 0 10.1823 0.630417 11.5494 1.89125C12.9165 3.15208 13.6001 4.845 13.6001 6.97C13.6001 8.38667 13.0369 9.92729 11.9107 11.5919C10.7844 13.2565 9.08087 15.0592 6.80003 17Z" fill="#4E87F8"/>
</svg>
