<svg width="20" height="20" viewBox="0 0 20 20" fill="none" xmlns="http://www.w3.org/2000/svg">
<g clip-path="url(#clip0_0_20)">
<path d="M9.99997 19.0444C10.3499 19.0364 10.6858 18.9048 10.9481 18.673C11.2104 18.4412 11.3823 18.1241 11.4333 17.7778H8.51108C8.56356 18.1335 8.74348 18.4581 9.01736 18.6911C9.29123 18.9241 9.64042 19.0496 9.99997 19.0444Z" fill="white"/>
<path d="M18.25 15.6278L18.0611 15.4611C17.5252 14.9836 17.0562 14.4361 16.6667 13.8333C16.2412 13.0014 15.9863 12.0929 15.9167 11.1611V8.41664C15.9144 8.08328 15.8847 7.75067 15.8278 7.4222C14.8867 7.22877 14.0414 6.7161 13.435 5.97096C12.8286 5.22583 12.4983 4.29403 12.5 3.33331V2.98331C11.92 2.69786 11.2968 2.51015 10.6556 2.42775V1.72775C10.6556 1.53105 10.5774 1.3424 10.4383 1.20331C10.2992 1.06422 10.1106 0.986084 9.91389 0.986084C9.71719 0.986084 9.52855 1.06422 9.38946 1.20331C9.25037 1.3424 9.17223 1.53105 9.17223 1.72775V2.45553C7.73652 2.65806 6.42255 3.37316 5.47291 4.46882C4.52327 5.56449 4.00208 6.96672 4.00556 8.41664V11.1611C3.93598 12.0929 3.68099 13.0014 3.25556 13.8333C2.87272 14.4346 2.41123 14.9821 1.88334 15.4611L1.69445 15.6278V17.1944H18.25V15.6278Z" fill="white"/>
<path d="M16.6667 6.11116C18.2008 6.11116 19.4444 4.86751 19.4444 3.33338C19.4444 1.79926 18.2008 0.555603 16.6667 0.555603C15.1325 0.555603 13.8889 1.79926 13.8889 3.33338C13.8889 4.86751 15.1325 6.11116 16.6667 6.11116Z" fill="#DD0303"/>
</g>
<defs>
<clipPath id="clip0_0_20">
<rect width="20" height="20" fill="white"/>
</clipPath>
</defs>
</svg>
