<svg width="20" height="22" viewBox="0 0 20 22" fill="none" xmlns="http://www.w3.org/2000/svg">
<path d="M3.33329 18.499C2.87496 18.499 2.48246 18.3264 2.15579 17.981C1.82913 17.6357 1.66607 17.2211 1.66663 16.7372V7.04725C1.66663 6.56275 1.82996 6.14784 2.15663 5.80253C2.48329 5.45721 2.87552 5.28485 3.33329 5.28543H6.66663V3.52362C6.66663 3.03912 6.82996 2.62422 7.15663 2.2789C7.48329 1.93359 7.87552 1.76122 8.33329 1.76181H11.6666C12.125 1.76181 12.5175 1.93447 12.8441 2.27978C13.1708 2.6251 13.3338 3.03971 13.3333 3.52362V5.28543H16.6666C17.125 5.28543 17.5175 5.45809 17.8441 5.80341C18.1708 6.14872 18.3338 6.56333 18.3333 7.04725V16.7372C18.3333 17.2217 18.17 17.6366 17.8433 17.9819C17.5166 18.3272 17.1244 18.4996 16.6666 18.499H3.33329ZM8.33329 5.28543H11.6666V3.52362H8.33329V5.28543Z" fill="#4E87F8"/>
</svg>
